<?xml version="1.0" standalone="no"?>
<!DOCTYPE svg PUBLIC "-//W3C//DTD SVG 20010904//EN"
 "http://www.w3.org/TR/2001/REC-SVG-20010904/DTD/svg10.dtd">
<svg version="1.0" xmlns="http://www.w3.org/2000/svg"
 width="2000.000000pt" height="2000.000000pt" viewBox="0 0 2000.000000 2000.000000"
 preserveAspectRatio="xMidYMid meet">
<metadata>
Created by potrace 1.16, written by Peter Selinger 2001-2019
</metadata>
<g transform="translate(0.000000,2000.000000) scale(0.100000,-0.100000)"
fill="#000000" stroke="none">
<path d="M8132 16270 c-96 -59 -49 -210 65 -210 38 0 91 34 104 68 42 107 -70
202 -169 142z"/>
<path d="M6665 15824 c-203 -31 -343 -73 -500 -151 -414 -204 -711 -590 -807
-1050 -21 -103 -22 -133 -26 -676 -3 -567 -3 -568 19 -613 24 -51 75 -89 132
-99 27 -5 37 -12 37 -26 0 -10 12 -48 26 -84 21 -51 29 -63 39 -55 11 9 12 7
8 -9 -6 -22 0 -24 59 -24 20 0 25 -4 20 -15 -4 -11 -7 -12 -10 -4 -7 22 -23
12 -17 -10 6 -22 6 -22 -14 2 -11 14 -21 21 -21 16 0 -4 11 -21 25 -38 14 -16
25 -26 25 -21 0 4 5 1 10 -8 7 -11 21 -16 48 -14 23 1 39 -2 39 -9 0 -7 -8
-12 -18 -12 -10 0 -15 4 -13 8 3 4 1 8 -4 8 -41 0 17 -56 63 -62 19 -2 29 -8
27 -17 -2 -9 4 -12 18 -8 13 3 18 1 13 -6 -4 -7 0 -8 11 -4 9 4 14 3 11 -2 -3
-5 -1 -12 5 -16 5 -3 10 -24 10 -45 0 -22 7 -45 16 -54 19 -20 74 -21 100 -2
19 14 19 36 22 890 l2 877 -24 24 c-47 47 -115 19 -117 -47 0 -30 -17 -85 -18
-64 -1 5 -7 3 -14 -3 -8 -6 -18 -7 -23 -3 -4 4 -2 -1 5 -11 13 -16 12 -19 -7
-24 -12 -3 -19 -10 -16 -15 3 -5 12 -7 18 -5 7 3 13 -1 13 -8 0 -10 -5 -11
-18 -4 -24 12 -32 11 -23 -2 5 -8 2 -9 -12 -1 -13 7 -25 6 -43 -5 l-26 -15 24
20 c14 11 31 17 40 14 9 -3 12 -1 8 5 -4 7 4 15 20 20 22 8 24 11 10 16 -10 4
-28 -3 -46 -18 -16 -14 -33 -25 -38 -25 -5 0 -19 -10 -31 -22 -12 -13 -37 -39
-57 -58 -20 -19 -43 -50 -51 -67 -8 -18 -17 -33 -20 -33 -3 0 -2 6 2 13 5 9 4
9 -6 0 -10 -9 -9 -19 9 -48 11 -20 21 -38 21 -40 0 -6 -29 1 -37 10 -4 4 -2 5
5 1 15 -9 15 -1 1 26 -9 17 -13 18 -20 7 -5 -8 -9 -26 -9 -41 0 -17 -5 -28
-14 -28 -15 0 -21 57 -32 290 -18 365 119 722 375 978 39 39 81 77 93 83 13 6
20 8 15 4 -4 -5 9 -14 29 -21 30 -10 39 -10 50 0 8 8 24 11 41 8 28 -6 28 -6
-7 -12 l-35 -5 50 -12 c34 -9 62 -10 89 -4 21 5 46 7 55 5 9 -2 3 2 -14 10
-36 18 -21 21 25 5 24 -9 34 -9 40 0 4 7 21 13 38 13 17 1 30 6 29 11 -1 6 7
12 18 14 17 4 18 2 5 -7 -13 -10 -12 -11 3 -6 10 3 21 6 23 6 3 0 2 5 -2 12
-5 8 -2 9 10 5 10 -4 32 -1 49 7 18 8 46 17 62 21 l30 7 -35 13 -35 12 29 7
c16 4 31 5 34 1 3 -3 -3 -6 -14 -6 -10 -1 6 -5 36 -9 30 -5 86 -4 125 1 88 12
221 10 295 -4 26 -6 30 -5 15 2 -19 9 -19 10 3 10 12 1 22 -3 22 -9 0 -5 12
-10 28 -9 l27 1 -25 8 -25 8 25 1 c14 0 32 -4 40 -9 13 -9 13 -10 0 -10 -14 0
57 -49 72 -50 3 0 9 8 11 18 4 16 5 15 6 -1 1 -14 7 -18 29 -14 15 2 21 2 15
0 -7 -3 -13 -9 -13 -13 0 -6 12 -5 28 0 26 10 26 10 7 -6 -18 -15 -18 -16 -2
-10 11 3 31 8 45 11 25 5 25 4 -3 -7 -27 -10 -28 -12 -10 -19 29 -11 47 -11
40 1 -3 6 1 7 9 4 9 -3 14 -9 11 -14 -2 -4 15 -6 40 -5 24 1 42 -2 39 -7 -6
-9 50 -11 95 -2 29 6 30 8 14 20 -17 12 -17 13 -1 14 9 0 19 -4 22 -9 3 -4 23
-4 45 2 36 10 38 12 23 24 -13 10 -9 10 14 -1 39 -19 157 -134 215 -211 186
-246 283 -561 265 -865 -11 -202 -19 -281 -27 -286 -5 -3 -10 0 -10 5 -2 18
-4 24 -19 64 -12 31 -16 35 -22 20 -6 -15 -7 -13 -7 7 1 14 1 31 0 38 -2 18
-31 15 -31 -4 0 -11 5 -14 18 -9 14 5 15 4 5 -6 -7 -7 -13 -22 -14 -33 -1 -12
-5 -4 -10 18 -6 24 -6 43 0 50 10 12 -57 96 -77 96 -7 0 -11 5 -10 11 2 6 -7
13 -20 14 -13 1 -31 10 -40 20 -16 17 -15 17 13 -1 17 -10 26 -13 20 -6 -14
16 -103 62 -120 62 -19 0 -35 32 -35 69 0 65 -69 93 -115 46 l-25 -24 0 -863
c0 -673 3 -868 13 -888 10 -20 21 -26 54 -28 52 -4 73 16 73 68 0 21 4 41 9
45 6 3 8 14 6 24 -2 10 3 18 11 18 11 0 11 -3 1 -15 -10 -13 -9 -14 8 -5 11 6
26 8 34 5 8 -2 11 0 7 6 -6 9 21 27 36 24 20 -4 137 108 120 115 -8 3 -4 11
13 25 14 11 23 24 20 29 -4 5 -2 16 3 25 8 15 10 15 15 0 4 -11 3 -15 -4 -11
-6 4 -9 1 -8 -6 2 -8 -2 -25 -9 -39 -12 -24 -12 -24 3 -5 8 11 22 28 30 37 8
10 10 20 6 22 -5 3 -11 14 -14 25 -3 14 0 19 12 16 27 -5 42 9 45 41 6 57 16
72 54 79 56 10 107 48 131 97 21 43 21 55 21 569 0 552 -6 648 -49 809 -148
553 -588 971 -1153 1091 -90 20 -353 34 -423 23z"/>
<path d="M9729 14533 c-39 -24 -60 -67 -66 -135 -4 -42 -11 -61 -22 -65 -9 -3
-42 -17 -74 -31 l-58 -25 -45 44 c-43 42 -48 44 -104 44 -51 0 -62 -4 -90 -30
-38 -37 -55 -95 -40 -138 6 -18 28 -50 50 -72 l39 -40 -29 -65 c-16 -36 -30
-70 -30 -76 0 -7 -27 -13 -70 -16 -65 -3 -73 -6 -106 -39 -43 -43 -54 -96 -31
-152 22 -52 68 -77 143 -77 l61 0 13 -42 c7 -24 20 -59 31 -79 l18 -36 -40
-39 c-53 -51 -66 -102 -44 -161 18 -47 42 -68 96 -83 48 -14 98 3 143 49 l39
40 36 -18 c20 -10 53 -24 74 -30 36 -12 37 -14 37 -59 0 -57 30 -125 64 -147
63 -42 149 -22 193 44 17 26 23 48 23 92 0 41 4 59 13 59 6 0 40 13 74 29 l63
30 27 -28 c47 -46 80 -63 127 -63 52 -1 88 19 116 65 36 59 24 120 -35 181
l-36 38 24 61 c14 34 28 70 31 80 4 14 17 17 72 17 64 0 68 2 105 39 35 34 39
44 39 87 0 55 -25 105 -62 125 -13 7 -52 15 -87 18 -63 6 -64 6 -77 43 -7 20
-20 53 -30 73 l-17 36 35 37 c45 46 58 72 58 112 0 78 -58 140 -133 140 -46 0
-71 -12 -117 -56 l-35 -34 -75 29 -75 29 -6 64 c-3 35 -11 73 -18 86 -30 56
-135 81 -192 45z m166 -367 c154 -41 257 -154 287 -314 14 -73 2 -152 -33
-226 -31 -68 -116 -151 -186 -184 -51 -24 -70 -27 -158 -27 -78 0 -111 4 -145
19 -110 48 -190 135 -225 245 -26 79 -17 208 19 278 85 169 268 256 441 209z"/>
<path d="M9758 14000 c-129 -25 -205 -177 -147 -296 54 -112 176 -154 286 -99
73 37 106 89 111 175 3 52 0 75 -16 106 -45 87 -138 133 -234 114z"/>
<path d="M3732 14339 l-23 -20 23 -19 c13 -11 19 -19 13 -20 -5 0 1 -7 13 -16
12 -8 28 -12 35 -8 8 5 8 2 -2 -9 -12 -15 -11 -17 3 -17 10 0 15 -4 12 -8 -6
-11 51 -55 63 -48 4 3 8 -1 8 -9 0 -8 -5 -11 -11 -8 -7 3 -6 1 1 -7 12 -13 37
-4 28 11 -4 5 -1 9 4 9 15 0 14 -13 -1 -28 -10 -10 -10 -17 1 -35 13 -20 13
-21 -2 -9 -14 12 -25 5 -87 -57 -39 -40 -64 -71 -55 -71 8 0 15 -4 15 -9 0 -6
-10 -8 -21 -6 -35 7 -42 -5 -18 -31 12 -13 26 -24 31 -24 9 0 168 157 168 166
0 3 -12 -2 -27 -11 -28 -18 -28 -18 -10 2 18 21 69 26 95 9 7 -4 12 -4 12 1 0
4 5 1 10 -7 5 -8 7 -22 5 -30 -2 -8 0 -22 5 -30 7 -12 12 -12 22 -2 9 9 9 12
-2 12 -7 0 -11 2 -8 5 3 3 13 3 22 -1 16 -6 16 -8 1 -24 -12 -14 -13 -20 -4
-26 7 -4 18 1 26 11 7 11 13 14 13 8 0 -7 -4 -15 -10 -18 -5 -3 -10 -11 -10
-17 0 -6 6 -6 15 2 13 11 14 10 8 -5 -5 -15 -3 -17 11 -12 10 4 26 3 36 -3 13
-7 19 -6 23 4 7 17 -46 69 -58 59 -4 -5 -5 -3 -2 3 8 14 -17 37 -28 26 -5 -4
-5 -2 -2 4 3 6 -10 26 -30 45 -21 19 -31 25 -23 14 12 -17 12 -18 0 -8 -30 28
-18 54 71 146 67 70 86 94 77 104 -6 7 -16 13 -22 13 -6 0 -3 -7 7 -14 10 -8
14 -17 9 -20 -11 -6 -26 22 -23 42 3 21 -6 14 -80 -58 -63 -62 -70 -72 -58
-87 10 -11 10 -14 2 -9 -7 4 -13 3 -13 -2 0 -19 14 -21 31 -6 17 16 18 15 6
-10 -13 -29 -22 -33 -30 -13 -3 8 -20 14 -38 15 -24 1 -29 -2 -19 -8 8 -6 10
-10 4 -10 -6 0 -18 8 -25 17 -10 11 -10 14 -1 9 6 -4 12 -4 12 -1 0 11 -53 50
-63 47 -5 -1 -6 1 -3 6 7 12 -68 84 -79 75 -4 -5 -5 -3 -2 3 4 6 -2 19 -11 28
-17 15 -20 14 -40 -5z"/>
<path d="M15752 13640 c-99 -61 -59 -210 56 -210 68 0 111 43 112 110 0 52
-18 83 -60 105 -39 20 -69 19 -108 -5z"/>
<path d="M14422 13449 c-13 -5 -28 -7 -33 -3 -5 3 -9 0 -9 -6 0 -7 -6 -10 -14
-7 -7 3 -22 0 -32 -8 -11 -7 -22 -12 -26 -11 -9 1 -68 -46 -68 -54 0 -3 9 -6
20 -7 13 -1 18 2 14 9 -4 7 -2 8 5 4 6 -4 9 -12 6 -17 -7 -10 -33 -8 -53 5
-11 7 -12 4 -2 -13 6 -12 15 -19 20 -16 6 3 7 -1 4 -9 -4 -11 0 -16 10 -16 9
0 15 5 14 12 -2 7 4 12 12 13 8 0 15 5 15 12 0 6 4 15 9 20 5 5 6 3 2 -4 -4
-7 -2 -13 4 -13 6 0 13 7 16 15 4 9 13 13 24 10 9 -3 23 2 30 10 8 10 27 16
49 15 59 -3 68 1 36 15 -37 17 -20 19 24 4 24 -9 29 -14 19 -20 -10 -7 -8 -9
7 -10 11 0 29 -2 40 -5 11 -2 33 1 48 6 18 6 26 6 22 0 -4 -6 -13 -10 -21 -10
-22 0 -16 -16 14 -36 15 -9 35 -27 46 -38 10 -12 23 -20 28 -18 5 1 7 -1 4 -6
-3 -5 3 -26 13 -46 12 -23 22 -32 26 -25 4 6 1 15 -6 20 -9 6 -10 9 -2 9 19 0
25 -18 13 -40 -6 -12 -9 -26 -7 -33 3 -7 9 -1 15 13 10 24 11 24 11 3 1 -12
-4 -25 -10 -29 -7 -4 -9 -23 -5 -51 4 -28 2 -42 -4 -38 -6 3 -10 -1 -10 -10 0
-9 -9 -33 -20 -54 -10 -21 -16 -41 -13 -45 4 -3 1 -6 -5 -6 -13 0 -42 -28 -42
-41 0 -5 5 -9 11 -9 5 0 7 5 4 10 -3 6 -1 10 4 10 6 0 11 -4 11 -9 0 -16 -20
-23 -33 -12 -9 7 -21 3 -42 -15 -23 -19 -24 -22 -7 -14 33 16 27 3 -8 -15 -16
-8 -37 -15 -47 -14 -13 1 -11 3 7 9 21 7 22 8 5 9 -11 0 -33 -6 -49 -14 -16
-9 -37 -13 -45 -9 -9 4 -24 6 -33 5 -10 -1 -27 3 -38 9 -26 14 -85 -3 -94 -26
-3 -9 -1 -12 4 -9 6 3 10 2 10 -3 0 -6 10 -8 22 -4 14 3 19 2 14 -6 -4 -7 -4
-13 1 -13 4 -1 22 -3 38 -5 17 -1 42 -5 57 -8 16 -3 29 0 32 7 4 9 7 9 11 1 3
-7 16 -9 27 -6 21 5 21 6 2 14 -13 5 -7 7 17 3 41 -6 72 2 63 17 -4 6 3 8 17
4 18 -4 17 -2 -6 9 l-30 15 37 -6 c31 -5 43 -1 77 26 26 21 38 37 34 48 -4 10
-2 13 5 8 14 -8 40 30 48 72 4 18 11 35 15 38 5 3 9 10 9 15 0 6 -4 8 -9 4 -5
-3 -13 0 -17 7 -4 7 -4 10 1 6 4 -4 14 -1 22 7 20 20 10 132 -16 182 -12 22
-20 31 -21 21 0 -10 -4 -18 -9 -18 -5 0 -8 11 -7 24 0 13 4 22 9 19 21 -13 2
18 -31 50 -36 35 -61 49 -47 27 3 -5 1 -10 -5 -10 -7 0 -9 8 -5 19 8 28 -63
65 -89 46 -14 -11 -23 -11 -49 0 -32 13 -49 35 -27 35 6 0 9 -4 6 -8 -3 -4 8
-13 23 -18 20 -8 30 -7 40 3 11 12 11 14 0 12 -8 -1 -27 3 -44 10 -23 10 -34
10 -49 1 -12 -7 -16 -8 -11 -1 8 13 -21 13 -53 0z"/>
<path d="M14202 13288 c4 -8 0 -15 -8 -15 -7 0 -11 4 -8 9 3 4 -2 5 -10 2 -15
-6 -21 -23 -17 -52 1 -8 -5 -22 -15 -33 -11 -12 -14 -27 -10 -44 5 -19 3 -25
-5 -19 -8 5 -10 -4 -5 -32 4 -22 8 -49 9 -61 1 -13 5 -23 9 -23 4 0 5 -6 2
-14 -3 -7 2 -16 11 -20 10 -4 15 -12 11 -22 -3 -9 -2 -12 5 -9 5 4 7 16 3 28
-5 18 -4 20 7 10 9 -10 10 -18 1 -37 -9 -21 -7 -29 25 -63 l35 -38 -27 38
c-15 21 -25 41 -22 43 7 7 52 -69 49 -82 -3 -14 26 -27 40 -17 7 3 8 1 4 -5
-12 -19 7 -13 37 12 26 21 27 24 10 31 -29 13 -53 16 -53 6 0 -5 7 -11 15 -15
8 -3 15 -1 15 5 0 6 5 7 11 3 8 -5 6 -10 -5 -16 -20 -11 -50 8 -42 28 7 19 -5
25 -23 11 -14 -10 -14 -10 -3 5 8 10 10 23 6 30 -5 7 -9 15 -9 18 0 3 -6 14
-14 25 -10 16 -11 17 -7 2 3 -10 2 -15 -3 -12 -6 3 -9 18 -9 34 1 15 -3 34 -7
41 -15 24 -23 80 -12 80 7 0 7 4 -1 12 -7 7 -12 19 -12 28 0 13 1 13 10 0 8
-12 10 -11 10 6 0 11 3 23 6 27 12 12 13 96 2 103 -7 5 -9 2 -6 -8z"/>
<path d="M3891 12972 c-7 -12 -9 -81 -6 -188 4 -152 6 -169 22 -172 16 -3 16
-1 -1 13 -11 8 -15 15 -9 15 6 0 15 -6 21 -13 11 -13 96 -11 87 2 -2 5 -5 85
-5 179 l-2 172 -33 0 c-18 0 -40 3 -48 6 -9 3 -20 -2 -26 -14z"/>
<path d="M1968 12904 c-5 -5 -44 -12 -76 -13 -7 -1 -10 -6 -7 -12 4 -6 1 -9
-6 -8 -20 4 -59 -11 -59 -22 0 -6 5 -7 12 -3 7 4 8 3 4 -4 -4 -7 -1 -12 6 -12
10 0 10 -2 -1 -9 -8 -5 -21 -7 -28 -4 -11 4 -12 8 -3 13 8 5 9 10 2 14 -6 3
-17 -3 -25 -14 -7 -11 -16 -19 -18 -17 -2 1 -1 -2 4 -8 10 -12 87 -14 80 -2
-3 5 1 7 8 6 22 -3 50 12 42 24 -4 7 8 8 35 4 23 -3 42 -1 42 4 0 5 10 9 23 9
18 0 19 -2 7 -11 -11 -7 -3 -8 27 -4 32 5 47 3 59 -9 8 -9 24 -16 35 -16 11 0
18 -4 15 -9 -3 -5 1 -12 10 -15 10 -4 13 -2 8 7 -4 6 12 -7 35 -30 24 -24 47
-40 52 -37 5 3 6 -2 3 -11 -8 -20 4 -67 15 -60 5 3 9 -44 8 -105 -1 -60 -4
-105 -8 -99 -3 6 -18 -9 -33 -34 -14 -25 -41 -57 -58 -71 -39 -31 -23 -35 18
-5 l29 21 -30 -28 -30 -27 30 7 c22 5 26 4 15 -4 -8 -5 -11 -10 -6 -10 5 0 2
-8 -5 -17 -18 -24 40 26 66 56 20 24 65 97 65 107 0 3 -4 2 -10 -1 -14 -8 -13
-2 5 31 9 17 13 41 9 59 -4 23 -3 26 5 15 9 -13 11 -13 11 3 0 9 -4 17 -10 17
-5 0 -10 5 -10 11 0 5 5 7 12 3 8 -5 9 0 4 17 -4 13 -8 29 -8 36 -1 7 -4 12
-7 11 -18 -2 -24 3 -13 10 9 6 7 18 -9 53 -29 58 -69 110 -80 103 -5 -3 -7
-10 -3 -15 3 -5 11 -6 17 -2 7 4 7 0 -1 -10 -8 -9 -10 -22 -6 -29 4 -7 -5 -2
-19 11 -24 22 -26 26 -12 41 12 14 13 19 3 27 -27 21 -42 24 -19 4 13 -12 18
-21 12 -21 -7 0 -23 12 -38 28 -14 15 -32 26 -40 24 -8 -2 -12 1 -9 6 8 13
-20 19 -82 17 -32 -1 -48 1 -40 6 10 7 9 9 -3 9 -9 0 -18 -3 -21 -6z"/>
<path d="M3337 12834 c4 -10 1 -15 -8 -13 -26 6 -70 -11 -63 -23 5 -8 1 -9
-12 -5 -16 6 -16 4 3 -12 12 -10 20 -21 17 -24 -9 -8 68 -157 78 -151 5 3 8 0
7 -7 -5 -24 11 -69 24 -66 7 1 11 -6 9 -17 -2 -12 1 -16 9 -10 8 5 11 2 7 -8
-4 -8 0 -15 7 -15 10 0 11 5 4 19 -6 11 -6 25 -1 34 8 15 10 15 15 0 4 -10 3
-15 -3 -11 -15 9 -12 -11 3 -23 9 -8 17 -8 27 0 12 8 12 9 -3 4 -11 -4 -16 -2
-11 5 3 6 14 9 24 6 14 -3 17 -1 13 11 -5 11 -2 14 10 9 16 -6 16 -4 1 31 -17
42 -34 63 -34 43 0 -7 7 -19 15 -27 8 -9 15 -20 15 -27 0 -6 -9 -1 -21 11 -12
14 -19 33 -18 50 4 32 -55 160 -77 169 -10 4 -12 8 -5 12 7 5 6 14 -5 29 -17
25 -36 30 -27 6z"/>
<path d="M4544 12825 c10 -15 12 -26 6 -30 -6 -4 -9 -1 -8 6 2 6 -3 14 -11 17
-10 3 -12 0 -8 -11 4 -12 2 -14 -11 -10 -15 6 -15 5 -4 -10 12 -14 11 -21 -8
-47 -12 -16 -24 -30 -26 -30 -3 0 2 10 10 22 9 12 16 29 16 37 0 7 -14 -12
-31 -43 -24 -45 -28 -61 -18 -72 6 -7 16 -11 22 -7 6 3 7 1 3 -6 -6 -9 -11 -9
-22 0 -17 14 -16 14 -37 -30 -9 -18 -14 -38 -10 -44 3 -5 1 -7 -4 -4 -16 10
-26 -25 -11 -35 24 -16 73 -42 83 -44 6 -1 10 21 9 55 -1 55 -1 56 11 22 6
-20 14 -30 18 -24 4 6 0 24 -8 39 -17 33 -19 50 -6 58 5 4 7 -4 4 -16 -4 -19
-3 -20 6 -8 9 12 10 9 5 -12 -3 -16 -2 -28 3 -28 14 0 35 49 27 62 -4 7 -2 8
5 4 13 -9 31 32 23 53 -4 10 -1 12 8 6 10 -6 11 -2 6 18 -3 14 -2 29 4 32 6 3
7 -1 4 -9 -11 -28 3 -17 24 18 l20 34 -21 19 c-11 10 -17 13 -14 6 5 -7 0 -9
-14 -6 -12 3 -16 9 -10 12 6 4 -3 12 -20 18 l-31 12 16 -24z"/>
<path d="M1744 12793 c3 -4 -3 -13 -15 -21 -16 -11 -17 -17 -8 -28 6 -7 15
-12 19 -9 4 2 5 -8 1 -23 -5 -25 -6 -25 -9 -5 -3 21 -5 22 -27 7 -24 -15 -38
-47 -49 -112 -4 -22 -2 -31 5 -26 7 4 10 -12 9 -47 -3 -82 -1 -91 12 -83 8 5
9 2 5 -9 -3 -9 -2 -19 4 -22 5 -4 7 -11 4 -16 -4 -5 7 -23 24 -40 17 -17 31
-35 31 -40 0 -5 5 -9 10 -9 14 0 13 13 -2 28 -9 9 -9 15 -1 23 8 8 13 7 18 -2
6 -8 4 -10 -5 -4 -8 5 -11 3 -8 -6 3 -8 13 -13 23 -11 17 3 17 2 1 -13 -21
-21 -15 -29 47 -65 54 -31 72 -37 62 -20 -4 6 7 10 27 9 30 0 31 -1 11 -9 -31
-13 -29 -15 15 -17 20 -2 32 1 25 5 -7 4 6 7 29 7 l40 0 -28 -13 -29 -13 30 5
c64 10 111 23 140 39 17 9 24 16 16 17 -11 0 -11 3 3 13 17 12 16 14 -9 25
-21 10 -31 9 -54 -3 -16 -8 -32 -11 -36 -7 -5 4 -6 2 -2 -3 4 -7 -23 -11 -78
-11 -47 0 -79 4 -72 8 8 5 5 8 -9 8 -12 0 -40 14 -62 30 -23 17 -45 31 -49 31
-5 1 -7 5 -5 10 1 5 -4 9 -12 9 -8 0 -18 5 -22 12 -4 7 -3 8 4 4 8 -5 10 -2 6
8 -3 9 -11 13 -17 9 -6 -4 -8 0 -4 10 3 9 -4 26 -20 41 -14 15 -23 29 -20 33
4 3 7 1 7 -5 0 -7 4 -12 9 -12 10 0 2 50 -11 67 -5 7 -5 13 0 17 5 3 12 27 16
54 3 27 12 57 20 67 8 11 11 26 8 34 -4 10 -1 12 7 6 10 -6 11 -3 2 13 -8 15
-8 23 1 28 6 4 8 3 5 -3 -14 -22 22 -21 42 1 l21 22 -21 1 c-15 1 -19 -2 -14
-14 5 -14 2 -14 -15 2 -18 17 -61 33 -46 18z"/>
<path d="M2819 12431 c-8 -9 -15 -24 -17 -31 -2 -8 -12 -20 -23 -28 -19 -13
-19 -14 8 -35 15 -12 29 -25 31 -29 2 -4 13 -3 24 3 15 8 19 8 14 0 -11 -17 2
-13 34 11 24 17 33 19 43 9 9 -10 9 -11 -4 -6 -8 3 -26 -4 -39 -15 -13 -11
-31 -18 -39 -15 -18 6 6 -14 70 -60 23 -16 60 -45 82 -63 l41 -34 28 34 c35
41 55 73 39 64 -6 -4 -11 -2 -11 3 0 6 -6 11 -13 11 -7 0 -22 7 -33 16 -18 14
-18 15 6 4 22 -10 23 -10 7 3 -9 8 -28 12 -41 10 -13 -3 -27 1 -31 7 -5 9 -1
10 16 6 20 -6 18 -1 -14 28 -24 22 -45 32 -55 29 -10 -4 -13 -2 -8 5 9 14 -59
66 -75 56 -7 -4 -9 -3 -6 3 4 6 1 16 -6 22 -10 7 -17 6 -28 -8z"/>
<path d="M5006 12413 c-27 -21 -43 -39 -36 -41 6 -2 24 10 39 27 l28 31 13
-24 c7 -13 10 -30 7 -38 -3 -7 -6 -2 -6 12 -1 20 -3 22 -11 10 -6 -10 -10 -11
-10 -2 0 6 -5 12 -11 12 -6 0 -9 -7 -5 -15 6 -16 -35 -32 -54 -20 -6 4 -18 1
-26 -6 -12 -10 -12 -14 -2 -21 8 -6 5 -7 -11 -3 -16 5 -21 4 -17 -4 4 -6 0
-11 -11 -11 -25 -1 -76 -47 -67 -62 5 -8 2 -9 -10 -5 -11 5 -15 3 -10 -5 5 -8
2 -9 -9 -5 -9 3 -19 2 -23 -4 -9 -15 16 -39 42 -39 13 0 24 -4 24 -9 0 -5 3
-18 6 -28 4 -13 0 -11 -15 7 -23 28 -29 16 -6 -14 16 -21 39 -12 32 14 -3 11
2 28 10 39 12 18 12 21 -1 21 -8 0 -16 -6 -19 -12 -3 -7 -4 -3 -4 8 1 15 6 20
16 16 10 -4 12 -1 6 9 -6 11 -5 11 4 3 14 -13 23 -66 10 -58 -5 3 -9 -2 -9
-10 0 -20 16 -21 24 -1 3 8 11 14 17 13 6 -2 14 3 16 10 4 11 1 12 -17 2 -15
-8 -20 -8 -16 -1 4 6 16 16 28 22 15 8 19 8 14 0 -11 -18 20 -13 35 6 12 14
12 16 0 8 -10 -6 -12 -4 -7 4 5 7 10 10 13 7 7 -7 63 25 63 36 0 4 -8 5 -17 2
-17 -5 -17 -5 0 6 9 6 22 8 29 4 7 -4 8 -3 4 4 -5 8 0 12 13 12 12 0 21 4 21
8 0 5 9 13 19 18 19 9 19 9 -1 34 -15 17 -19 19 -15 7 4 -10 1 -27 -6 -37 -12
-17 -13 -14 -12 21 0 21 4 39 8 39 5 0 6 4 2 10 -3 5 -11 8 -18 6 -7 -1 -9 -1
-4 1 10 6 9 23 -1 23 -5 0 -30 -17 -56 -37z"/>
<path d="M5895 12178 c-11 -6 -28 -19 -38 -29 -15 -16 -15 -19 -2 -19 8 0 15
-4 15 -10 0 -5 -10 -9 -22 -7 -17 1 -24 -4 -27 -23 -3 -14 -6 -571 -8 -1237
-3 -1065 -1 -1213 12 -1213 8 0 13 6 11 13 -1 6 -1 9 1 5 3 -5 14 -8 26 -9 14
0 8 -5 -18 -14 -22 -7 -31 -13 -21 -14 11 -1 16 -4 12 -8 -4 -5 -330 -10 -724
-13 l-717 -5 -57 -27 c-105 -49 -179 -136 -212 -249 -15 -50 -16 -118 -14
-550 l3 -494 32 -67 c40 -85 106 -151 191 -191 l67 -32 708 -3 c618 -2 708 -5
703 -17 -4 -12 5 -15 47 -17 l52 -2 -47 -3 c-38 -3 -48 -8 -54 -26 -4 -12 -2
-23 5 -25 14 -5 15 -52 1 -52 -8 0 -10 -201 -8 -636 3 -590 4 -637 20 -648 10
-7 15 -16 11 -20 -4 -4 0 -4 10 0 13 4 16 2 11 -9 -7 -21 35 -34 48 -16 6 10
7 7 3 -8 l-6 -23 3891 0 c3405 0 3895 2 3919 15 16 8 48 18 72 22 l44 8 -40 6
-40 6 43 2 c24 0 42 -4 42 -10 0 -7 105 -9 340 -7 326 3 340 4 360 23 20 21
20 25 20 1374 0 744 -2 1357 -5 1361 -8 13 44 28 155 45 146 23 140 20 140 64
0 33 -4 39 -37 55 -21 9 -93 47 -161 84 -89 48 -118 68 -107 75 13 7 15 158
16 1215 0 664 0 1222 0 1240 -2 45 -45 108 -83 121 -45 16 -8555 15 -8583 -1z
m6393 -5 c-1160 -2 -3056 -2 -4215 0 -1160 1 -211 2 2107 2 2318 0 3267 -1
2108 -2z m-2098 -105 c69 -24 91 -67 50 -100 -20 -15 -25 -25 -17 -30 25 -16
-14 -8 -53 11 -22 11 -40 15 -40 11 0 -5 5 -12 10 -15 6 -3 10 -12 10 -18 0
-7 -4 -6 -10 3 -8 12 -12 13 -19 2 -5 -9 -8 -3 -7 17 1 17 4 31 9 31 4 0 7 5
7 11 0 6 -7 9 -15 5 -19 -7 -20 33 -2 59 13 16 14 15 10 -16 -3 -30 -2 -31 7
-11 5 12 17 25 26 29 13 5 13 7 2 14 -18 12 -7 11 32 -3z m4140 -253 c0 -13
-464 -15 -4127 -13 l-4128 3 4123 2 c2736 2 4122 6 4122 13 0 6 2 10 5 10 3 0
5 -7 5 -15z m-8290 -15 c0 -7 1392 -10 4155 -10 2763 0 4155 3 4155 10 0 6 4
10 10 10 5 0 7 -7 4 -15 -4 -9 0 -15 10 -15 9 0 16 -4 16 -10 0 -5 -6 -7 -12
-5 -10 4 -13 -200 -13 -1002 0 -999 0 -1008 20 -1015 20 -6 20 -6 0 -7 -24 -1
-33 -41 -9 -41 8 0 14 -4 14 -8 0 -4 -10 -7 -23 -7 -20 1 -422 202 -832 415
-528 275 -1856 950 -1869 950 -13 0 -825 -127 -1576 -246 -124 -20 -281 -45
-350 -55 -69 -11 -309 -49 -535 -85 -225 -35 -495 -78 -600 -94 -104 -16 -205
-32 -223 -35 -32 -6 -33 -8 -30 -46 l3 -40 245 -128 c635 -331 1155 -603 1156
-604 1 -1 -30 -180 -67 -397 -80 -453 -135 -789 -144 -875 l-6 -60 109 -72
c474 -310 1031 -514 1623 -595 221 -30 740 -33 944 -4 179 24 369 60 500 93
l110 28 8 80 c8 73 118 959 133 1066 l6 45 155 27 c86 14 158 29 161 32 3 3 6
58 7 123 0 111 -1 120 -29 170 -37 66 -92 117 -182 169 -149 85 -254 121 -668
223 -427 106 -576 163 -736 284 -80 60 -98 82 -81 99 7 7 26 0 64 -26 179
-118 340 -172 772 -256 272 -54 409 -87 510 -126 234 -89 372 -193 438 -333
30 -63 32 -75 34 -187 2 -109 3 -120 20 -118 10 1 205 34 433 73 228 39 430
74 449 77 22 4 36 1 41 -8 10 -15 14 -2165 4 -2204 l-6 -25 -340 0 c-223 0
-337 -3 -333 -10 3 -5 -1 -10 -9 -10 -8 0 -18 5 -21 10 -3 6 -23 10 -43 10
l-37 -1 35 -28 c19 -16 41 -27 50 -24 12 4 12 3 2 -5 -8 -5 -13 -13 -12 -18 3
-23 -39 -12 -71 18 -62 60 -74 64 -30 11 24 -29 48 -50 54 -46 6 4 8 0 4 -11
-6 -14 -3 -16 16 -11 17 5 19 4 7 -4 -12 -9 -13 -14 -2 -31 7 -11 9 -20 5 -19
-20 3 -24 -2 -13 -16 6 -8 9 -19 5 -25 -7 -11 -55 -14 -55 -2 0 4 -25 34 -57
67 -37 39 -48 48 -33 25 13 -19 36 -47 52 -61 24 -22 26 -28 14 -44 -7 -10
-18 -15 -24 -11 -7 4 -12 2 -12 -3 0 -15 43 -14 58 1 9 9 12 9 12 0 0 -7 -7
-15 -16 -19 -14 -5 -13 -9 7 -25 18 -15 19 -18 6 -14 -10 3 -28 6 -40 6 -18 0
-19 2 -7 10 19 13 8 13 -24 0 -21 -7 -26 -6 -26 5 0 8 -4 15 -10 15 -5 0 -10
6 -10 13 0 6 -16 29 -35 51 -19 21 -35 43 -35 49 0 6 -3 8 -6 5 -9 -9 23 -65
47 -82 12 -8 18 -19 14 -25 -3 -6 1 -18 10 -27 9 -9 15 -23 13 -32 -6 -28 -28
-24 -45 9 -10 18 -27 41 -38 53 -11 11 -20 27 -22 35 -2 19 -20 35 -26 24 -5
-9 26 -60 71 -117 12 -16 22 -36 22 -45 0 -12 -2 -13 -8 -3 -5 7 -15 10 -23 7
-10 -4 -20 4 -29 20 -7 14 -17 25 -20 25 -4 0 -13 14 -20 30 -7 17 -16 30 -20
30 -5 0 -11 -13 -15 -30 -5 -25 -11 -30 -33 -29 -24 2 -25 2 -4 6 22 4 22 5 4
31 -11 15 -27 50 -37 79 -18 49 -45 77 -53 54 -2 -6 -8 -11 -13 -11 -5 0 -4 9
3 19 9 15 15 17 25 9 10 -8 13 -6 13 6 0 9 -4 16 -8 16 -5 0 -12 19 -18 43
l-9 42 -1950 2 -1950 3 -25 -21 -25 -20 25 6 c19 5 22 4 10 -4 -8 -6 -23 -8
-34 -5 -13 4 -16 3 -11 -6 5 -9 4 -11 -3 -6 -6 4 -29 -4 -51 -18 -21 -14 -42
-22 -47 -18 -4 4 -4 1 0 -5 7 -13 -3 -17 -34 -14 -11 1 -10 -3 4 -14 21 -16
10 -21 -14 -5 -10 6 -25 3 -46 -9 -17 -11 -46 -22 -64 -26 -24 -5 -29 -10 -19
-16 10 -6 5 -9 -16 -9 -28 0 -127 -20 -207 -42 -20 -6 -48 -8 -62 -4 -14 3
-26 4 -26 1 0 -2 15 -8 33 -13 l32 -8 -27 -6 c-17 -3 -25 -1 -21 5 4 7 -16 8
-58 5 l-64 -6 45 12 45 12 -60 1 c-37 1 -84 10 -125 26 -114 43 -108 41 -86
23 11 -9 16 -16 10 -16 -11 1 -51 30 -40 30 4 0 -6 11 -22 25 -31 26 -48 33
-37 15 3 -5 1 -10 -5 -10 -7 0 -10 6 -7 13 2 7 -14 32 -36 57 -22 25 -34 37
-27 27 7 -9 11 -20 8 -23 -3 -2 -13 11 -22 31 l-17 35 -1069 -2 c-999 -3
-1067 -2 -1059 14 14 27 12 881 -3 896 -8 8 -9 12 -1 12 6 0 9 8 6 19 -4 17 3
19 99 23 90 3 111 7 170 35 85 40 151 105 191 191 l32 67 3 498 c3 539 2 549
-52 641 -32 55 -102 119 -163 149 -63 31 -82 36 -178 38 -44 1 -89 5 -100 10
-13 5 -15 8 -5 9 13 0 13 1 0 10 -13 9 -13 10 0 10 12 0 12 2 1 9 -9 6 -10 11
-2 15 15 10 15 2092 0 2102 -8 5 -6 10 5 16 9 5 14 13 11 19 -4 5 -1 9 4 9 6
0 11 -4 11 -10z m-785 -2825 c88 -51 195 -113 238 -137 l79 -45 -214 -123
c-297 -172 -294 -170 -301 -170 -4 0 -7 133 -7 295 l0 296 23 -12 c12 -6 94
-53 182 -104z"/>
<path d="M15806 12028 c-9 -34 -7 -45 4 -28 8 13 10 12 10 -2 0 -17 49 -18
898 -18 685 0 901 3 910 12 9 9 12 9 12 0 0 -19 17 -14 23 7 5 20 -9 51 -23
51 -5 0 -11 -8 -13 -17 -4 -17 -5 -17 -6 0 -1 16 -51 17 -905 17 l-904 0 -6
-22z"/>
<path d="M2530 11842 c-3 -65 -6 -88 -15 -94 -6 -5 -3 -8 7 -8 13 0 16 7 14
33 -2 17 -1 22 1 9 2 -12 8 -20 13 -17 5 3 7 -3 5 -14 -3 -17 1 -19 38 -15 31
2 37 1 22 -6 -16 -7 -13 -9 20 -10 22 -2 44 -2 49 -1 4 1 13 -2 20 -7 6 -5 40
-14 76 -21 36 -7 73 -14 83 -16 11 -2 18 4 19 18 1 12 3 31 3 42 1 11 6 28 10
38 10 25 5 28 -59 30 -31 1 -56 5 -56 9 0 4 -15 5 -32 2 -24 -4 -29 -3 -19 4
11 8 9 10 -10 10 -13 0 -44 5 -69 10 -99 22 -119 23 -120 4z"/>
<path d="M5307 11854 c-4 -4 -28 -9 -54 -12 -27 -2 -50 -7 -53 -11 -3 -3 -22
-7 -43 -8 -20 -1 -44 -9 -53 -17 -17 -18 -39 -22 -29 -6 10 17 -27 11 -48 -7
-11 -10 -17 -12 -13 -5 4 6 3 12 -2 12 -6 0 -12 -7 -16 -15 -3 -9 0 -15 8 -15
10 0 12 -11 9 -41 -4 -29 -2 -39 6 -35 6 4 11 3 11 -3 0 -11 24 -9 110 12 36
8 80 15 99 16 18 1 41 6 50 11 13 8 11 10 -9 7 -14 -2 -19 -2 -12 0 7 3 10 8
8 11 -2 4 10 8 27 9 24 2 28 0 17 -7 -11 -7 -7 -10 18 -10 l34 0 -7 43 c-11
66 -34 94 -58 71z"/>
<path d="M15800 11688 c0 -7 3 -23 6 -35 l6 -23 903 0 c852 0 904 1 908 18 4
16 5 16 6 0 0 -10 5 -18 11 -18 14 0 28 31 23 51 -5 17 -48 18 -910 19 -855 1
-907 0 -926 -17 -11 -10 -17 -13 -14 -6 4 6 3 14 -3 18 -5 3 -10 0 -10 -7z"/>
<path d="M16708 11342 c-798 -2 -908 -4 -908 -17 0 -8 6 -15 13 -15 8 0 7 -4
-3 -10 -8 -5 -10 -10 -5 -10 6 0 416 -1 912 -3 717 -2 903 1 903 11 0 6 8 12
18 11 10 0 12 -3 5 -6 -17 -6 -16 -23 1 -23 7 0 16 9 19 20 3 11 1 20 -5 20
-5 0 -7 4 -4 9 3 5 -4 10 -17 12 -12 2 -430 3 -929 1z m460 -19 c-247 -2 -649
-2 -895 0 -247 1 -45 2 447 2 492 0 694 -1 448 -2z"/>
<path d="M15822 10993 c-18 -4 -22 -10 -20 -29 l3 -25 927 -2 928 -2 0 32 0
33 -907 -2 c-500 0 -918 -3 -931 -5z"/>
<path d="M15804 10635 c-3 -7 -4 -22 -2 -32 3 -17 44 -18 911 -20 714 -2 907
0 907 10 0 8 3 7 9 -2 12 -19 41 2 36 27 -2 9 -4 20 -4 25 -1 4 -6 7 -12 7 -5
0 -7 -6 -3 -12 6 -10 4 -10 -7 0 -19 18 -27 15 -32 -10 l-4 -23 -2 23 -1 22
-895 0 c-765 0 -897 -2 -901 -15z"/>
<path d="M18136 10372 c-77 -141 -170 -311 -206 -377 -75 -135 -124 -225 -217
-400 -36 -66 -111 -205 -168 -310 -331 -608 -476 -878 -473 -880 3 -2 65 -36
335 -182 l82 -44 24 43 c14 24 71 129 127 233 93 172 187 345 260 480 15 28
130 239 255 470 319 589 472 870 511 941 l34 62 -128 70 c-236 129 -279 152
-288 152 -5 0 -72 -116 -148 -258z"/>
<path d="M15807 10287 c-10 -27 -9 -57 4 -57 5 0 7 6 3 13 -6 10 -4 10 7 0 10
-10 209 -13 925 -13 l913 0 7 22 c4 15 1 25 -11 34 -21 16 -41 9 -48 -17 -5
-19 -23 -19 -889 -17 l-883 3 883 2 c874 3 882 3 882 23 0 20 -7 20 -885 20
l-885 0 -1 -22 c-1 -22 -1 -22 -8 2 -6 22 -8 23 -14 7z"/>
<path d="M2510 9405 l-24 -26 84 -84 84 -85 -77 -75 c-42 -41 -77 -79 -77 -83
0 -5 10 -18 23 -30 l23 -22 79 80 80 80 80 -80 81 -80 27 28 27 28 -80 79 -80
80 80 80 c44 44 80 85 80 92 0 6 -11 18 -23 26 -23 15 -26 13 -107 -65 l-83
-80 -81 81 c-45 45 -84 81 -87 81 -3 0 -16 -11 -29 -25z"/>
<path d="M15923 8214 c-20 -10 -37 -30 -47 -55 -16 -39 -16 -39 -69 -39 -53 0
-54 1 -71 39 -29 63 -97 81 -141 37 -33 -33 -39 -66 -20 -112 l16 -38 -39 -39
c-34 -34 -42 -38 -60 -28 -37 20 -91 13 -117 -14 -47 -46 -26 -123 41 -151 33
-14 34 -16 34 -69 0 -53 -1 -55 -34 -69 -41 -17 -56 -42 -56 -90 0 -66 61
-100 130 -73 l38 15 37 -38 c36 -37 37 -39 25 -75 -22 -68 14 -125 80 -125 46
0 76 21 90 65 11 34 13 35 65 35 52 0 54 -1 76 -40 36 -63 109 -74 149 -22 23
28 25 61 8 109 -12 32 -11 35 24 69 34 35 37 36 72 24 73 -24 131 12 131 80 0
45 -23 75 -71 90 -33 11 -34 13 -34 66 0 52 1 54 34 68 68 28 85 92 39 146
-24 29 -31 32 -67 27 -23 -3 -50 -8 -61 -11 -14 -4 -32 5 -58 28 -34 30 -36
36 -27 60 17 46 12 91 -12 114 -32 29 -68 35 -105 16z m3 -232 c81 -41 144
-137 144 -219 0 -89 -60 -190 -138 -232 -113 -61 -273 -9 -334 109 -72 136 -3
308 142 355 57 19 135 13 186 -13z"/>
<path d="M15782 7890 c-117 -27 -138 -195 -31 -252 118 -63 248 56 190 175
-30 63 -92 92 -159 77z"/>
<path d="M17012 7904 c-7 -64 -11 -118 -9 -120 2 -2 45 31 96 72 70 57 90 79
79 86 -16 11 -146 78 -151 78 -2 0 -9 -52 -15 -116z"/>
<path d="M18171 7896 l-23 -25 62 -63 c34 -34 67 -63 74 -64 27 -3 30 -5 17
-13 -11 -7 -7 -13 15 -27 16 -10 31 -19 33 -20 1 -2 0 -8 -4 -14 -6 -9 -10 -9
-16 1 -7 11 -9 11 -10 2 -1 -7 -2 -17 -3 -23 0 -5 -4 -9 -7 -7 -4 1 -16 -7
-28 -17 l-21 -19 22 -24 c25 -27 43 -30 34 -7 -5 12 -2 15 9 10 9 -3 13 -2 10
3 -3 5 4 12 15 16 11 3 20 11 20 16 0 18 30 8 46 -15 8 -14 21 -23 29 -20 7 3
16 1 20 -5 3 -6 1 -11 -5 -11 -6 0 13 -25 42 -55 54 -57 74 -66 84 -40 4 8 11
12 18 8 7 -4 7 -1 -1 9 -7 8 -11 17 -8 20 3 3 -5 13 -17 24 -12 10 -18 13 -13
5 5 -10 4 -12 -3 -7 -7 4 -12 13 -12 19 0 7 -17 28 -37 47 -20 19 -33 29 -29
23 4 -7 5 -13 1 -13 -3 0 -10 11 -15 25 -5 14 -21 30 -35 35 -14 5 -25 12 -25
16 0 3 7 4 14 1 11 -4 13 -1 9 10 -4 11 -3 14 5 9 7 -4 19 -1 27 8 13 13 13
16 0 29 -13 13 -13 16 1 27 12 11 13 10 9 -2 -4 -9 0 -18 9 -21 10 -4 13 -1 9
9 -4 10 0 12 11 8 9 -3 16 -1 16 5 0 6 -5 11 -11 11 -7 0 -9 10 -5 25 4 14 3
25 -1 25 -12 0 -35 -16 -36 -26 -1 -5 -5 -8 -8 -7 -13 4 -65 -63 -61 -77 2 -8
-6 -1 -17 15 -12 17 -21 26 -21 21 0 -4 -9 2 -21 15 -11 13 -18 18 -14 12 3
-7 4 -13 0 -13 -3 0 -10 12 -15 26 -6 14 -19 28 -30 31 -11 3 -18 9 -15 13 3
4 -2 13 -9 19 -11 9 -16 9 -22 0 -4 -7 -3 -9 2 -6 5 3 10 -3 10 -13 0 -25 -12
-16 -24 19 -9 26 -8 29 6 24 15 -5 14 -3 -2 15 -24 28 -27 27 -55 -2z"/>
<path d="M6133 6176 l-22 -44 22 -6 c39 -10 184 -7 167 4 -13 8 -13 10 1 10
19 0 33 26 19 35 -7 4 -6 13 0 26 10 18 7 19 -78 19 l-88 0 -21 -44z"/>
<path d="M6414 6203 c-4 -10 -6 -24 -5 -32 1 -8 -2 -10 -10 -5 -9 5 -11 1 -7
-14 4 -12 2 -20 -3 -16 -5 3 -9 0 -9 -5 0 -7 33 -11 90 -11 65 0 90 3 90 13 0
7 3 8 8 2 13 -18 36 -11 53 15 11 17 13 27 5 32 -8 6 -8 8 0 8 7 0 14 7 18 15
5 13 -11 15 -108 15 -99 0 -115 -2 -122 -17z"/>
<path d="M6710 6199 c-7 -11 -9 -23 -6 -26 3 -3 -2 -12 -10 -20 -8 -8 -11 -20
-7 -26 4 -7 9 -4 14 9 7 17 8 17 8 2 1 -16 13 -18 101 -18 l100 0 25 50 c14
28 21 50 15 50 -5 0 -10 -4 -10 -10 0 -5 -5 -10 -11 -10 -5 0 -7 5 -4 10 3 6
2 10 -4 10 -5 0 -12 -6 -14 -12 -4 -10 -6 -10 -6 0 -1 9 -26 12 -91 12 -80 0
-90 -2 -100 -21z"/>
<path d="M7020 6207 c0 -7 5 -18 12 -25 9 -9 9 -12 0 -12 -6 0 -9 -7 -6 -15 4
-8 1 -15 -5 -15 -6 0 -11 12 -12 28 l-1 27 -9 -29 c-4 -17 -6 -32 -3 -35 3 -3
47 -7 98 -9 98 -4 150 8 127 31 -6 6 -11 18 -10 27 0 10 2 11 6 3 7 -18 20
-16 27 3 8 22 -4 40 -15 23 -5 -8 -9 -9 -9 -3 0 8 -34 12 -100 13 -78 2 -100
-1 -100 -12z"/>
<path d="M7321 6211 c-7 -5 -10 -14 -7 -20 10 -16 26 -14 20 2 -3 8 1 14 8 14
8 0 14 -9 14 -19 0 -10 -6 -18 -13 -18 -7 0 -13 -6 -13 -12 0 -9 -3 -8 -10 2
-7 12 -10 11 -16 -5 -4 -11 -12 -23 -18 -27 -6 -4 44 -8 112 -8 129 0 126 -1
125 48 -1 6 4 12 9 12 6 0 7 7 4 16 -3 8 -2 12 4 9 6 -3 10 -1 10 4 0 13 -208
15 -229 2z"/>
<path d="M7608 6202 c-11 -13 -10 -14 17 -8 20 5 27 4 20 -2 -5 -6 -19 -12
-30 -14 -14 -2 -20 -11 -20 -28 0 -25 1 -25 96 -28 l97 -3 7 37 c5 28 9 34 16
23 7 -11 9 -9 9 9 0 15 -4 21 -11 16 -6 -3 -15 0 -20 7 -4 7 -11 10 -15 6 -4
-3 -2 -12 4 -20 6 -7 7 -19 3 -26 -6 -8 -10 -3 -14 18 l-6 31 -70 -1 c-51 -1
-74 -5 -83 -17z"/>
<path d="M7895 6210 c-4 -7 -2 -17 4 -23 8 -8 11 -6 12 9 0 10 3 13 6 7 2 -7
19 -14 36 -14 l32 -2 -35 -6 c-23 -4 -34 -11 -32 -21 3 -11 -2 -10 -16 4 -20
17 -20 17 -27 -3 -3 -12 -4 -24 -1 -29 2 -4 56 -9 119 -11 113 -2 115 -2 123
21 4 13 7 29 6 36 -2 6 2 12 7 12 6 0 8 7 5 15 -8 21 -25 19 -18 -2 5 -16 4
-17 -8 -2 -16 20 -202 28 -213 9z"/>
<path d="M8200 6211 c0 -5 9 -8 20 -6 12 2 18 0 15 -6 -4 -5 -11 -7 -16 -4 -5
4 -9 1 -9 -5 0 -6 -4 -9 -8 -6 -4 2 -8 -3 -8 -12 -1 -9 -4 -24 -8 -32 -6 -14
7 -16 89 -16 88 0 120 8 78 19 -14 4 -12 5 5 6 15 1 22 7 22 20 0 11 5 23 10
26 20 13 9 25 -23 25 -32 0 -33 -2 -31 -32 l3 -33 -7 30 c-7 29 -9 30 -70 33
-36 2 -62 -1 -62 -7z"/>
<path d="M8456 6203 c-4 -9 -9 -32 -12 -52 -4 -34 -4 -35 11 -17 13 18 15 18
15 3 0 -16 10 -17 88 -15 l87 3 -2 28 c-1 15 2 27 6 27 5 0 11 9 14 20 5 19 0
20 -98 20 -87 0 -104 -3 -109 -17z"/>
<path d="M8719 6188 c-1 -18 -1 -36 0 -40 0 -5 -3 -8 -9 -8 -5 0 -10 -4 -10
-9 0 -4 41 -9 92 -10 93 -2 108 3 108 39 0 13 -1 13 -10 0 -8 -13 -10 -12 -10
3 0 9 7 17 15 17 8 0 15 9 15 20 0 19 -7 20 -95 20 l-95 0 -1 -32z"/>
<path d="M8976 6203 c-3 -10 -5 -20 -5 -23 0 -3 -4 -17 -10 -32 l-11 -28 69 0
c37 0 89 3 115 6 40 6 46 10 46 31 0 13 5 33 10 44 8 15 7 19 -4 19 -8 0 -17
-10 -19 -22 l-4 -23 -2 23 c-1 24 -16 30 -25 10 -5 -10 -7 -10 -12 0 -3 7 -24
12 -50 12 -39 0 -44 -3 -45 -22 l0 -23 -11 23 c-13 26 -34 29 -42 5z"/>
<path d="M9257 6206 c-3 -7 0 -19 6 -25 8 -8 7 -11 -5 -11 -11 0 -14 -7 -10
-25 4 -25 5 -25 111 -25 72 0 101 3 91 10 -13 8 -12 10 3 10 14 0 17 5 12 20
-4 11 -2 20 4 20 6 0 11 9 11 20 0 19 -7 20 -109 20 -83 0 -110 -3 -114 -14z"/>
<path d="M9540 6195 c-5 -14 -7 -32 -3 -41 3 -9 0 -20 -8 -25 -10 -6 -2 -9 23
-9 20 0 39 6 41 13 4 10 6 10 6 0 1 -16 91 -18 91 -3 0 6 5 10 11 10 5 0 7 -4
4 -10 -3 -5 2 -10 13 -10 15 0 42 35 42 56 0 3 -38 4 -84 2 -46 -2 -82 0 -79
5 2 4 40 7 84 7 64 0 79 3 79 15 0 12 -18 15 -105 15 -103 0 -106 -1 -115 -25z"/>
<path d="M9824 6183 c5 -28 4 -34 -3 -23 -9 12 -11 9 -11 -12 l0 -28 100 0
c95 0 101 1 109 23 6 16 4 24 -8 29 -9 4 -10 7 -3 7 6 1 12 10 12 21 0 19 -7
20 -101 20 l-101 0 6 -37z"/>
<path d="M10081 6169 l-1 -51 104 4 c102 3 105 4 109 28 3 14 1 28 -4 31 -5 3
-7 13 -3 22 3 9 2 17 -4 17 -6 0 -12 -6 -15 -12 -4 -10 -7 -10 -18 0 -8 7 -42
12 -90 12 l-76 0 -2 -51z"/>
<path d="M10354 6177 c-1 -23 4 -45 10 -49 6 -4 54 -8 106 -8 l95 0 1 35 c0
19 -3 32 -7 30 -4 -3 -5 4 -2 15 5 19 0 20 -98 20 l-104 0 -1 -43z"/>
<path d="M10628 6213 c6 -2 12 -9 12 -14 0 -6 -4 -7 -10 -4 -6 3 -10 -5 -10
-19 0 -14 5 -28 10 -31 6 -4 8 -11 4 -16 -4 -7 33 -9 105 -8 103 3 137 11 94
22 -17 4 -17 5 0 6 25 2 21 21 -5 22 -17 1 -19 2 -5 6 9 2 17 13 17 24 0 18
-8 19 -112 18 -62 0 -107 -3 -100 -6z"/>
<path d="M10907 6213 c-4 -3 -7 -11 -7 -17 0 -6 5 -4 10 4 6 11 9 2 7 -30 l-2
-45 105 0 105 0 0 45 0 45 -87 3 c-83 3 -87 2 -91 -20 l-4 -23 -2 23 c-1 21
-20 30 -34 15z"/>
<path d="M11186 6207 c3 -8 6 -27 8 -43 2 -16 4 -32 5 -36 0 -5 44 -8 96 -8
69 0 95 3 97 13 0 6 2 17 3 22 2 6 3 15 4 20 1 6 6 3 12 -5 9 -13 10 -13 5 0
-3 8 -9 23 -12 33 -6 16 -25 25 -23 10 3 -20 -2 -43 -10 -43 -4 0 -6 11 -3 25
l4 25 -96 0 c-76 0 -94 -3 -90 -13z"/>
<path d="M11475 6190 c9 -71 7 -70 112 -70 82 0 94 2 83 15 -6 8 -8 20 -4 26
4 8 3 9 -4 5 -8 -5 -12 3 -12 23 l0 31 -71 0 -71 0 7 -29 c6 -30 -8 -50 -21
-30 -5 8 -3 9 6 4 10 -6 12 -4 7 9 -4 10 -7 24 -7 32 0 8 -7 14 -15 14 -10 0
-13 -9 -10 -30z"/>
<path d="M11723 6213 c14 -4 16 -8 6 -19 -9 -11 -9 -21 0 -43 l12 -29 100 -1
c102 -2 118 5 87 38 -9 9 -9 12 -1 7 8 -5 9 1 0 24 l-11 30 -106 -1 c-58 -1
-97 -3 -87 -6z"/>
<path d="M11984 6205 c3 -9 6 -19 6 -21 0 -3 4 -3 8 0 4 2 6 -11 4 -30 l-4
-34 87 0 86 0 -5 30 c-2 17 0 30 5 30 6 0 9 -6 8 -12 -4 -32 1 -52 11 -42 7 7
7 23 -2 50 l-13 39 -99 3 c-87 2 -98 1 -92 -13z"/>
<path d="M12243 6193 c9 -15 18 -35 20 -44 7 -21 50 -29 158 -29 72 0 89 3 89
15 0 8 -5 15 -11 15 -6 0 -9 7 -5 15 3 8 1 15 -5 15 -5 0 -9 8 -7 18 3 15 -7
17 -79 20 -53 2 -83 -1 -83 -8 0 -6 -8 -6 -21 2 -17 10 -23 10 -26 1 -3 -10
-10 -10 -25 -2 -20 11 -20 10 -5 -18z"/>
<path d="M12547 6214 c7 -3 9 -12 6 -21 -4 -10 -2 -14 4 -10 7 5 9 0 6 -13
-10 -39 18 -50 133 -50 83 0 104 3 97 13 -5 6 -10 22 -11 35 -2 47 -17 52
-136 51 -61 0 -106 -3 -99 -5z"/>
<path d="M12870 6209 c0 -5 -4 -8 -9 -5 -5 3 -11 -3 -14 -14 -3 -11 -1 -20 4
-20 5 0 9 5 9 10 0 6 4 10 9 10 4 0 7 -16 5 -35 l-2 -36 92 2 c91 1 93 2 103
29 8 20 7 33 -3 51 l-14 24 6 -27 c4 -18 2 -28 -6 -28 -6 0 -9 4 -6 9 4 5 3
16 0 25 -5 13 -23 16 -90 16 -52 0 -84 -4 -84 -11z"/>
<path d="M13128 6203 c5 -10 15 -31 23 -48 l15 -30 114 -2 c73 -1 108 1 95 7
-16 7 -17 9 -3 9 15 1 16 5 4 39 l-13 37 -81 3 c-57 2 -82 -1 -82 -9 0 -8 -5
-8 -16 2 -13 10 -17 10 -24 0 -5 -9 -10 -10 -14 -2 -12 18 -27 13 -18 -6z"/>
<path d="M3240 6066 l0 -94 -62 -11 c-168 -29 -312 -154 -367 -319 -18 -52
-21 -86 -21 -225 0 -171 9 -227 52 -312 27 -52 122 -151 176 -182 53 -32 153
-63 198 -63 19 0 36 -6 38 -12 51 -191 92 -289 174 -410 145 -215 372 -376
627 -445 92 -25 115 -27 280 -27 162 0 190 3 278 27 114 30 254 95 350 160 37
26 71 47 75 47 5 0 19 11 32 25 13 14 27 25 32 25 5 0 0 -10 -12 -22 -24 -26
-18 -38 9 -14 14 13 32 16 77 13 l59 -3 -62 -2 c-35 -1 -63 -5 -63 -9 0 -5
1865 -8 4145 -8 2757 0 4145 3 4145 10 0 6 1 56 3 112 1 64 -1 99 -7 93 -13
-13 -36 -13 -36 1 0 5 4 8 9 4 5 -3 12 -1 16 5 4 7 -1302 10 -4061 10 -2237 0
-4068 1 -4070 2 -1 2 14 30 33 63 41 70 87 181 116 280 20 67 21 100 24 723
l4 652 -1096 0 -1095 0 0 -94z m-2 -653 l-3 -398 -30 3 c-91 10 -204 102 -241
197 -16 42 -19 76 -19 205 0 149 1 157 28 212 15 31 46 73 68 93 48 43 132 85
172 85 l27 0 -2 -397z m9334 -1190 c-413 -2 -1091 -2 -1505 0 -413 1 -75 2
753 2 828 0 1166 -1 752 -2z"/>
<path d="M6153 6063 l-92 -4 -21 -45 c-12 -25 -19 -48 -16 -52 4 -3 11 0 15 7
6 9 11 10 15 2 4 -6 39 -11 85 -11 65 0 81 3 96 20 9 10 15 26 12 35 -4 8 -1
14 6 12 7 -1 11 4 10 11 -2 6 2 12 7 12 6 0 10 5 10 10 0 6 -8 9 -17 8 -10 -1
-59 -4 -110 -5z"/>
<path d="M6339 6049 c-4 -9 -5 -19 -2 -23 3 -3 2 -6 -4 -6 -6 0 -16 -13 -21
-29 l-10 -28 89 -2 c67 -2 89 1 89 11 0 9 3 9 10 -2 9 -13 11 -13 20 0 8 12
12 13 19 2 8 -14 13 -9 21 23 1 6 9 19 16 30 26 37 18 40 -102 40 -97 0 -117
-3 -125 -16z"/>
<path d="M6658 6059 c-6 -4 -5 -9 3 -12 9 -3 6 -6 -7 -6 -15 -1 -24 -11 -31
-36 -6 -19 -7 -35 -3 -35 5 0 11 10 13 23 4 19 4 18 6 -5 l1 -28 79 0 c54 0
81 4 84 13 4 8 6 8 6 0 2 -25 38 1 57 42 11 24 16 42 12 39 -4 -3 -8 -1 -8 4
0 5 -11 10 -24 10 -18 0 -23 -5 -21 -19 2 -11 0 -19 -6 -19 -5 0 -9 8 -9 18 0
15 -10 17 -71 17 -39 0 -75 -3 -81 -6z"/>
<path d="M7045 6059 l-100 -5 95 -4 95 -4 -87 -3 c-86 -4 -88 -4 -94 -31 -3
-15 -7 -32 -9 -38 -2 -7 22 -12 71 -13 86 -2 144 7 144 23 0 6 7 24 15 40 23
44 24 44 -130 35z"/>
<path d="M7350 6060 c-91 -5 -95 -6 -93 -27 2 -13 -2 -22 -8 -20 -7 1 -15 -9
-19 -23 l-7 -25 106 -3 c58 -1 111 1 116 5 23 18 35 41 29 57 -5 13 -23 16
-107 16 -55 0 -98 2 -96 5 3 2 53 5 112 6 60 1 106 3 104 5 -8 8 -42 9 -137 4z"/>
<path d="M7563 6052 c-15 -16 -17 -38 -3 -47 6 -3 10 -15 10 -26 0 -17 8 -19
95 -19 96 0 96 0 95 35 0 3 6 18 15 34 l15 30 -107 3 c-79 2 -110 0 -120 -10z"/>
<path d="M7849 6059 c-11 -7 -11 -9 -1 -9 10 0 8 -5 -4 -17 -16 -17 -16 -18 7
-24 22 -6 22 -7 3 -8 -22 -1 -38 -23 -27 -35 4 -3 44 -6 90 -6 60 0 83 4 83
13 0 8 4 7 10 -3 8 -12 11 -13 19 -1 6 9 10 10 16 2 9 -16 38 7 31 25 -3 7 -1
16 4 19 27 17 2 25 -77 27 l-88 2 95 6 95 6 -90 3 c-49 1 -104 4 -121 5 -18 2
-38 0 -45 -5z"/>
<path d="M8240 6061 c-73 -5 -85 -8 -84 -23 1 -10 -2 -18 -7 -18 -4 0 -6 -9
-4 -20 2 -11 0 -20 -6 -20 -5 0 -9 -4 -9 -8 0 -5 42 -9 94 -11 83 -2 96 0 104
16 15 27 15 35 0 44 -10 7 -8 9 6 9 12 0 16 5 12 16 -3 9 -6 18 -6 20 0 2 -3
3 -7 2 -5 -1 -46 -4 -93 -7z"/>
<path d="M8411 6038 c-7 -15 -9 -37 -6 -49 5 -16 4 -19 -5 -14 -9 6 -11 4 -5
-4 5 -9 36 -12 104 -10 94 3 111 8 111 38 0 11 -4 9 -14 -5 -15 -19 -15 -19
-11 1 2 11 4 23 4 28 1 4 8 7 17 7 9 0 14 7 12 16 -2 14 -19 17 -99 18 -96 1
-96 1 -108 -26z"/>
<path d="M8943 6058 c-2 -5 38 -9 89 -10 l93 -2 -80 -5 c-90 -7 -109 -15 -119
-51 -6 -19 -5 -21 3 -10 9 13 11 13 11 -2 0 -16 11 -18 93 -18 50 0 99 5 107
10 12 8 12 10 -5 10 -15 0 -17 2 -6 9 8 5 11 16 7 26 -5 15 -4 16 9 5 12 -10
15 -10 15 3 0 9 -8 18 -17 20 -17 4 -17 5 0 6 9 0 17 4 17 9 0 4 -48 7 -106 7
-58 0 -108 -3 -111 -7z"/>
<path d="M9243 6063 c-7 -2 -13 -13 -13 -22 0 -10 -3 -21 -7 -24 -11 -12 -12
-57 -1 -57 6 0 8 11 6 23 -3 14 0 24 7 24 7 0 10 -10 7 -24 -2 -12 0 -23 6
-23 6 0 13 10 15 23 l4 22 2 -22 c1 -22 5 -23 86 -23 74 0 85 2 86 18 3 42 7
60 13 71 5 8 -18 11 -83 11 -49 0 -95 2 -103 4 -7 3 -19 2 -25 -1z"/>
<path d="M9607 6062 l-99 -3 6 -24 c4 -14 2 -25 -3 -25 -12 0 -9 -33 4 -42 16
-12 163 -9 171 3 4 8 9 7 15 -2 6 -10 9 -6 9 14 0 15 4 27 10 27 5 0 7 -8 4
-17 -5 -15 -4 -16 5 -3 17 24 13 67 -6 71 -10 2 -62 3 -116 1z"/>
<path d="M10166 6060 c-84 -5 -90 -6 -91 -27 -2 -22 2 -23 79 -25 l81 -2 -80
-5 c-62 -5 -80 -9 -80 -21 0 -12 18 -16 93 -18 83 -2 92 -1 93 15 0 17 1 17 8
0 4 -10 11 -19 15 -19 9 0 26 22 26 33 0 10 -34 45 -50 52 -8 4 -3 5 13 2 15
-3 27 -1 27 4 0 13 -36 16 -134 11z"/>
<path d="M10360 6058 c0 -4 48 -9 108 -11 l107 -3 -107 -2 c-90 -2 -108 -5
-108 -18 0 -8 4 -13 9 -10 10 6 25 -24 16 -32 -3 -3 -5 0 -5 6 0 7 -4 12 -9
12 -5 0 -7 -8 -4 -19 4 -17 15 -19 114 -19 60 0 109 2 109 5 0 2 -5 13 -10 24
-7 11 -7 19 -1 19 5 0 6 11 2 26 -6 25 -8 25 -114 27 -59 1 -107 -1 -107 -5z"/>
<path d="M10735 6060 l-100 -6 85 -5 85 -5 -83 -2 c-80 -2 -83 -3 -79 -24 9
-53 11 -54 127 -57 86 -2 110 1 110 11 0 29 -21 86 -33 90 -6 1 -57 1 -112 -2z"/>
<path d="M10936 6062 c-18 -4 -22 -32 -5 -32 7 0 9 -10 5 -27 -5 -21 -4 -24 4
-13 8 12 10 11 10 -8 0 -22 2 -23 95 -21 62 1 95 5 95 13 0 6 5 4 10 -4 13
-21 12 -3 -2 36 l-12 33 -105 4 -106 3 112 2 c68 1 113 -2 116 -8 3 -6 4 -5 3
2 -2 9 -33 15 -103 18 -55 3 -108 4 -117 2z"/>
<path d="M11212 6052 c-2 -7 -2 -16 2 -19 3 -4 6 -1 6 5 0 7 4 12 9 12 6 0 6
-12 1 -29 -4 -15 -4 -34 0 -41 6 -9 10 -6 13 11 4 21 4 20 6 -6 1 -23 3 -27
11 -15 6 10 10 11 10 3 0 -9 23 -13 79 -13 104 0 112 3 100 42 -4 17 -6 35 -3
39 8 14 -14 18 -125 21 -78 2 -105 0 -109 -10z"/>
<path d="M11750 6058 c0 -5 42 -9 93 -10 l92 -2 -90 -6 c-49 -3 -83 -7 -75 -8
12 -2 13 -4 1 -11 -11 -7 -9 -10 8 -16 11 -3 21 -13 21 -20 0 -16 18 -30 27
-21 3 3 0 12 -7 21 -8 9 -8 15 -2 15 6 0 14 -9 17 -20 5 -17 15 -20 57 -20 47
0 50 1 44 23 -4 18 -1 23 17 24 12 0 16 -1 10 -4 -21 -8 -15 -39 7 -40 17 -2
19 2 13 25 -3 15 -9 28 -13 30 -5 2 -6 12 -3 22 3 11 1 20 -3 20 -102 5 -214
3 -214 -2z"/>
<path d="M12034 6063 c-8 -3 -7 -17 3 -47 17 -52 27 -56 137 -56 71 0 77 2 71
18 -4 9 -8 23 -8 30 0 6 -8 12 -18 12 -9 0 -19 7 -23 15 -3 8 -1 15 3 15 5 0
11 -6 14 -12 2 -7 7 -11 10 -8 10 9 -6 27 -30 34 -21 7 -22 5 -17 -22 4 -18 1
-32 -6 -37 -9 -5 -10 -1 -5 14 6 19 2 21 -42 23 l-48 1 45 7 45 7 -45 2 c-25
2 -52 4 -60 5 -8 2 -20 1 -26 -1z"/>
<path d="M12280 6060 c0 -11 16 -27 30 -33 12 -4 11 -6 -3 -6 -16 -1 -16 -3
-2 -31 l16 -30 121 0 121 0 -24 26 c-17 18 -19 23 -6 19 15 -6 15 -4 6 24 -6
17 -14 31 -17 31 -4 0 -60 1 -124 3 -65 1 -118 0 -118 -3z"/>
<path d="M12597 6058 c-7 -5 -3 -8 11 -8 19 0 21 -3 12 -19 -13 -25 -13 -44 1
-36 6 4 9 0 7 -11 -3 -17 6 -19 95 -22 91 -3 97 -1 97 17 0 11 5 23 12 27 7 5
9 2 6 -8 -4 -8 -2 -21 3 -29 6 -10 9 -6 9 14 0 15 -6 30 -14 33 -8 3 -13 11
-10 17 3 9 -22 12 -88 11 l-93 0 83 3 c45 2 82 7 82 11 0 9 -199 9 -213 0z"/>
<path d="M12893 6043 c6 -13 17 -23 26 -23 13 0 14 -2 2 -9 -22 -14 -6 -37 29
-45 59 -11 180 -7 180 7 0 8 3 7 10 -3 5 -8 12 -12 15 -8 3 3 -1 13 -10 22 -9
9 -12 16 -7 16 7 0 6 11 -1 29 -11 29 -12 30 -99 33 -79 3 -88 1 -98 -17 -10
-19 -10 -19 -6 3 4 19 0 22 -24 20 -25 -2 -27 -4 -17 -25z"/>
<path d="M9800 6051 c0 -5 4 -21 10 -35 7 -21 6 -26 -5 -26 -17 0 -20 -16 -5
-25 6 -3 10 0 10 7 0 9 3 10 8 2 4 -7 45 -12 101 -13 l94 -2 -5 25 c-3 14 -1
23 3 20 5 -3 9 4 9 15 0 20 -6 21 -107 23 l-108 2 110 6 110 6 -112 2 c-65 1
-113 -2 -113 -7z"/>
<path d="M13270 6050 l95 -6 -82 -2 c-86 -2 -92 -6 -72 -45 21 -39 49 -49 49
-18 0 11 4 22 9 25 4 3 6 -6 3 -19 l-4 -25 86 0 c75 0 86 2 87 18 0 14 2 14 9
-3 6 -14 9 -15 9 -5 1 9 -6 26 -15 38 -8 12 -12 22 -8 22 3 0 1 7 -6 15 -10
12 -36 15 -134 13 l-121 -2 95 -6z"/>
<path d="M5964 5875 c-3 -14 -10 -25 -14 -25 -4 0 -10 -8 -14 -17 -3 -10 -9
-24 -12 -30 -4 -9 3 -13 23 -12 l28 1 -25 8 c-24 8 -24 8 7 9 21 1 33 7 36 19
4 15 5 15 6 -2 1 -17 7 -18 84 -11 45 4 84 9 85 10 2 2 7 19 12 38 l7 35 -108
1 c-108 2 -108 2 -115 -24z"/>
<path d="M6258 5873 c-8 -16 -22 -40 -32 -55 l-18 -28 102 0 c96 0 102 1 97
19 -3 11 1 22 8 25 8 3 11 -2 8 -13 -3 -12 2 -20 15 -23 14 -4 24 3 37 26 l18
31 -26 -24 c-15 -14 -27 -20 -27 -15 0 5 13 18 29 29 17 11 32 27 34 37 5 17
-5 18 -113 18 l-119 0 -13 -27z"/>
<path d="M6573 5888 c-6 -7 -9 -21 -8 -30 2 -10 -2 -16 -7 -15 -6 1 -12 -10
-15 -25 l-4 -28 93 2 93 2 -90 6 -90 5 91 5 c64 4 95 1 103 -7 6 -7 17 -10 24
-7 12 4 39 57 41 79 1 6 6 13 11 17 6 4 -33 8 -87 8 -67 0 -98 -4 -102 -12 -5
-10 -7 -10 -12 0 -3 6 -11 12 -19 12 -7 0 -17 -6 -22 -12z"/>
<path d="M6872 5873 c-6 -15 -13 -41 -17 -56 l-6 -28 111 2 c78 2 116 7 128
17 16 13 15 13 -3 6 -11 -4 -67 -8 -125 -9 l-105 -3 105 8 c121 9 113 7 105
19 -3 5 0 13 6 17 8 4 9 3 5 -4 -4 -7 -1 -12 6 -12 15 0 38 44 29 57 -3 5 -56
10 -117 11 l-111 3 -11 -28z"/>
<path d="M7187 5878 c-3 -12 -3 -26 1 -32 3 -6 6 -20 7 -31 0 -18 8 -20 93
-23 59 -2 92 1 92 8 0 5 5 9 11 8 6 -2 14 3 17 11 2 8 1 11 -4 8 -5 -2 -15 2
-23 10 -12 13 -11 14 7 9 15 -5 24 -1 32 14 6 12 9 26 6 33 -2 7 -8 2 -11 -10
-9 -28 -25 -31 -18 -3 3 11 1 20 -5 20 -6 0 -13 -8 -15 -17 -4 -17 -5 -17 -6
0 -1 15 -12 17 -90 17 -83 0 -89 -1 -94 -22z"/>
<path d="M7498 5873 c-2 -15 -8 -27 -13 -26 -6 1 -12 -11 -13 -26 -2 -28 10
-33 48 -18 19 7 180 14 173 7 -2 -3 -44 -8 -91 -11 l-87 -6 91 -1 c76 -2 93 1
98 14 9 23 7 36 -4 29 -5 -3 -10 -1 -10 4 0 6 10 11 22 11 12 0 18 3 15 6 -3
4 -2 15 4 25 7 15 6 19 -6 19 -8 0 -15 -8 -16 -17 0 -16 -1 -16 -7 -2 -6 13
-25 17 -104 18 l-97 2 -3 -28z"/>
<path d="M7807 5893 c-4 -3 -7 -15 -7 -25 0 -11 -4 -17 -9 -14 -5 3 -11 -10
-13 -29 -4 -32 -2 -35 23 -35 26 0 27 1 18 41 -10 42 -6 60 14 58 9 0 9 -2 0
-6 -7 -2 -13 -11 -13 -19 0 -9 5 -12 10 -9 7 4 9 -2 4 -19 l-6 -26 85 0 c48 0
88 4 90 10 3 6 4 5 3 -2 -2 -9 -30 -15 -87 -19 l-84 -5 82 -2 c63 -2 85 2 97
14 18 18 21 34 6 34 -5 0 -10 8 -9 18 0 10 3 12 6 5 8 -22 21 -14 15 9 -3 14
-2 19 6 14 7 -4 12 -2 12 3 0 6 -9 11 -21 11 -11 0 -17 -4 -14 -10 3 -5 1 -10
-4 -10 -6 0 -11 5 -11 10 0 11 -182 14 -193 3z"/>
<path d="M8120 5890 c13 -8 12 -10 -3 -10 -14 0 -17 -5 -12 -21 5 -14 4 -19
-4 -15 -7 4 -9 1 -5 -7 3 -8 1 -18 -5 -22 -6 -3 -11 -10 -11 -16 0 -11 67 -12
72 -1 2 5 29 12 62 15 71 7 67 -2 -6 -13 l-53 -8 48 -1 c56 -1 89 13 81 34 -4
8 -10 13 -14 10 -5 -3 -11 -1 -14 4 -3 4 4 8 17 7 12 0 22 4 22 9 0 6 4 15 8
22 4 6 3 14 -2 17 -5 4 -12 0 -14 -6 -4 -10 -6 -10 -6 0 -1 8 -26 12 -88 12
-61 0 -83 -3 -73 -10z"/>
<path d="M8366 5883 c-4 -9 -9 -31 -12 -48 -5 -35 11 -50 37 -34 8 5 49 9 92
9 77 0 82 3 78 38 -1 6 2 12 7 12 5 0 12 9 15 20 5 19 0 20 -103 20 -91 0
-109 -3 -114 -17z"/>
<path d="M8640 5880 c0 -11 0 -21 1 -22 0 -2 -4 -15 -10 -30 -13 -34 -2 -38
94 -38 79 0 111 16 102 51 -3 11 -1 19 3 19 4 0 6 9 3 21 -4 16 -8 17 -14 7
-7 -10 -9 -10 -9 0 0 9 -24 12 -85 12 -78 0 -85 -2 -85 -20z"/>
<path d="M8907 5893 c-3 -5 -7 -21 -8 -38 -2 -16 -8 -33 -14 -37 -5 -4 45 -8
113 -8 133 0 128 -2 124 60 0 8 5 18 11 22 7 4 -41 8 -105 8 -64 0 -119 -3
-121 -7z"/>
<path d="M9195 5888 c-3 -7 -7 -28 -9 -45 l-3 -33 88 0 c48 0 90 -4 94 -10 11
-18 55 10 55 35 0 6 -5 3 -10 -5 -6 -9 -10 -10 -10 -3 0 6 4 14 9 17 9 6 22
56 14 56 -2 0 -8 -10 -13 -22 l-9 -23 0 23 c-1 12 -6 22 -12 22 -6 0 -8 -11
-5 -27 7 -33 -7 -64 -17 -38 -4 9 -3 13 3 10 13 -8 13 11 0 36 -9 16 -22 19
-91 19 -54 0 -81 -4 -84 -12z"/>
<path d="M9500 5889 c0 -5 -5 -7 -11 -4 -7 5 -8 -4 -4 -28 4 -21 3 -37 -4 -42
-25 -15 3 -21 111 -21 l113 -1 -95 6 -95 7 100 4 100 5 3 43 3 42 -110 0 c-72
0 -111 -4 -111 -11z"/>
<path d="M9785 5890 c-3 -5 -1 -10 4 -10 6 0 11 -4 11 -10 0 -5 -7 -10 -15
-10 -22 0 -20 -50 3 -51 14 0 14 -2 -3 -9 -13 -6 24 -8 99 -7 l119 2 3 53 3
52 -83 0 c-52 0 -87 -5 -95 -12 -11 -10 -14 -10 -18 0 -6 15 -19 16 -28 2z"/>
<path d="M10077 5888 c-2 -7 -4 -26 -3 -43 l1 -30 85 -6 85 -6 -88 1 c-48 1
-87 -2 -87 -6 0 -9 129 -10 192 -2 43 6 44 7 43 43 -1 38 -10 61 -26 61 -14 0
-11 -28 4 -33 7 -3 5 -6 -5 -6 -12 -1 -18 6 -18 19 0 19 -7 20 -89 20 -62 0
-90 -4 -94 -12z"/>
<path d="M10365 5890 c-3 -5 -3 -16 2 -22 4 -7 6 -23 4 -35 -2 -22 0 -23 96
-25 l98 -2 -95 -6 -95 -7 95 1 95 1 0 33 c0 17 5 32 11 32 6 0 9 -12 6 -30 -3
-18 0 -30 7 -30 6 0 11 19 11 46 0 27 -4 43 -10 39 -5 -3 -10 0 -10 7 0 9 -3
9 -10 -2 -6 -10 -10 -11 -10 -2 0 15 -185 17 -195 2z"/>
<path d="M10661 5861 c-1 -41 0 -43 13 -26 13 18 14 18 9 -8 -4 -21 -1 -27 12
-27 13 0 15 3 7 13 -7 8 -7 18 -2 27 8 12 10 10 10 -7 0 -22 4 -23 83 -23 91
0 118 9 98 33 -9 12 -9 16 0 19 7 2 10 11 6 21 -5 14 -21 17 -101 17 -92 0
-94 0 -90 -22 4 -21 4 -21 -7 2 l-12 25 -5 -25 -5 -25 -8 25 c-6 20 -7 17 -8
-19z"/>
<path d="M10955 5878 c4 -13 7 -30 7 -39 -1 -13 13 -18 60 -23 105 -11 178 -8
178 8 0 29 -23 76 -38 76 -13 0 -13 -2 1 -18 19 -21 22 -42 6 -42 -5 0 -7 5
-4 10 3 6 -1 13 -9 16 -9 3 -16 12 -16 20 0 11 -21 14 -96 14 -95 0 -96 0 -89
-22z"/>
<path d="M11254 5868 c3 -18 11 -35 17 -39 8 -4 7 -8 -2 -12 -12 -4 -11 -7 1
-16 9 -7 53 -11 108 -9 92 2 92 2 91 27 0 14 -3 20 -6 13 -5 -13 -23 -7 -23 9
0 6 5 7 10 4 6 -3 10 3 10 14 0 10 -6 22 -12 24 -8 4 -7 6 3 6 12 1 19 -11 23
-44 4 -25 12 -45 18 -45 6 0 7 8 3 18 -4 9 -9 32 -12 50 l-6 32 -115 0 -114 0
6 -32z"/>
<path d="M11544 5888 c-3 -5 -3 -12 1 -16 3 -3 10 0 15 8 6 8 10 10 10 5 0 -6
-5 -16 -12 -23 -9 -9 -8 -12 5 -12 11 0 14 -5 10 -16 -5 -13 -7 -13 -14 -2 -5
7 -9 9 -9 3 1 -5 7 -18 14 -28 12 -16 27 -18 105 -15 50 2 91 6 91 11 0 4 -5
7 -11 7 -5 0 -8 4 -4 9 3 5 1 12 -5 16 -5 3 -10 12 -10 18 0 7 4 6 11 -3 9
-13 10 -13 5 0 -3 8 -9 23 -12 33 -6 15 -18 17 -96 16 -49 -1 -91 -6 -94 -11z"/>
<path d="M11803 5893 c14 -4 16 -8 6 -19 -16 -20 7 -73 35 -80 11 -2 60 -4
108 -2 l88 3 -15 29 c-8 15 -12 32 -9 37 3 6 0 16 -6 24 -10 12 -37 15 -119
14 -58 -1 -98 -3 -88 -6z"/>
<path d="M12070 5892 c0 -5 3 -12 8 -16 7 -8 8 -13 11 -40 0 -8 8 -22 17 -30
19 -20 40 -11 23 10 -6 8 -7 14 -3 14 5 0 15 -9 22 -20 9 -15 22 -20 55 -18
l42 1 -45 7 -45 7 40 1 c22 1 46 -2 54 -7 19 -12 41 -3 41 18 0 14 -2 14 -10
1 -8 -13 -10 -13 -10 2 0 9 4 18 10 20 6 2 4 13 -3 28 -12 24 -17 25 -110 28
-53 1 -97 -1 -97 -6z"/>
<path d="M12330 5890 c0 -17 23 -60 32 -60 5 0 7 4 4 9 -7 11 21 8 31 -4 4 -4
2 -5 -4 -1 -7 4 -13 2 -13 -3 0 -6 -7 -11 -16 -11 -14 0 -14 -3 -4 -15 10 -12
34 -15 109 -13 l96 2 -100 6 -100 6 103 2 c56 1 102 -2 102 -6 0 -4 9 -8 20
-8 13 0 18 5 15 16 -2 8 -7 27 -11 42 -3 16 -10 25 -15 22 -5 -3 -9 2 -9 10 0
14 -16 16 -104 16 -74 0 -106 -4 -109 -12 -4 -10 -6 -10 -6 0 -1 14 -21 17
-21 2z"/>
<path d="M12654 5865 c6 -19 18 -35 26 -35 13 0 13 -1 0 -10 -13 -9 -13 -11 0
-20 17 -11 240 -14 240 -2 0 4 -7 15 -15 25 -7 11 -11 26 -8 35 5 10 3 13 -6
8 -8 -6 -11 -2 -9 10 3 18 -7 19 -118 22 l-121 3 11 -36z"/>
<path d="M12946 5885 c4 -8 10 -15 15 -15 5 0 8 -3 8 -7 -3 -20 2 -34 10 -29
5 3 15 -2 22 -12 13 -15 12 -16 -3 -3 -15 11 -18 11 -18 -1 0 -10 14 -18 38
-22 52 -8 190 -8 195 2 3 4 -34 7 -81 6 -58 -1 -65 0 -22 3 90 4 110 10 104
28 -4 8 -10 12 -15 9 -5 -3 -6 2 -3 11 14 35 -12 43 -136 44 -103 1 -119 -1
-114 -14z"/>
<path d="M13250 5889 c0 -5 5 -7 12 -3 8 5 9 2 5 -9 -3 -10 -2 -17 4 -17 6 0
7 -5 4 -11 -4 -6 3 -20 16 -32 19 -18 38 -21 137 -25 75 -3 113 -1 109 5 -4 6
-19 9 -34 7 -27 -4 -27 -3 -3 4 17 6 24 14 22 28 -2 10 -7 21 -11 24 -4 3 -10
13 -14 23 -3 9 -14 17 -22 17 -9 0 -13 -4 -10 -10 3 -5 1 -10 -4 -10 -6 0 -11
5 -11 10 0 6 -40 10 -100 10 -64 0 -100 -4 -100 -11z"/>
<path d="M6107 5734 c-3 -4 -56 -6 -117 -5 l-110 2 -12 -28 c-7 -15 -18 -34
-25 -41 -26 -27 -10 -32 111 -32 l124 0 13 38 c6 20 16 43 22 50 10 13 5 27
-6 16z"/>
<path d="M6300 5732 l-115 -3 -21 -44 c-26 -55 -25 -55 111 -55 95 0 104 2
110 20 3 11 10 20 15 20 10 0 31 59 22 62 -4 2 -59 2 -122 0z"/>
<path d="M6493 5718 c-9 -21 -9 -28 0 -32 7 -2 4 -5 -7 -5 -12 -1 -16 -6 -12
-17 3 -8 2 -12 -4 -9 -6 3 -10 2 -10 -3 0 -16 28 -22 105 -22 69 0 73 1 79 25
8 32 34 32 42 0 5 -21 8 -22 20 -10 8 7 19 26 24 41 10 25 9 26 -6 13 -16 -13
-16 -12 -6 8 7 12 12 23 12 25 0 2 -46 2 -102 2 -90 -1 -103 -3 -109 -20 -6
-17 -7 -16 -10 6 l-4 24 -12 -26z"/>
<path d="M6827 5732 c-17 -4 -21 -12 -18 -47 2 -17 0 -18 -9 -5 -10 12 -11 11
-7 -8 3 -12 1 -20 -3 -17 -5 3 -11 1 -14 -4 -9 -14 31 -21 117 -21 75 0 78 1
72 21 -5 15 -4 19 4 15 6 -4 11 -14 11 -22 0 -8 5 -14 10 -14 14 0 12 23 -2
39 -11 11 -10 13 5 7 10 -3 20 -6 22 -6 2 0 1 -10 -2 -22 l-5 -23 16 22 c9 13
16 28 15 35 -3 27 1 39 12 32 7 -4 10 -2 8 5 -4 12 -187 21 -232 13z"/>
<path d="M7249 5733 l-127 -4 -10 -27 c-21 -57 -21 -60 1 -66 12 -3 57 -6 100
-6 59 0 77 3 77 14 0 8 7 17 16 20 21 8 24 8 24 -4 0 -5 -7 -10 -15 -10 -8 0
-15 -5 -15 -11 0 -6 7 -8 16 -5 9 3 18 6 20 6 2 0 4 9 4 21 0 13 4 18 12 13 8
-5 9 -2 5 9 -3 10 -3 17 2 17 5 0 11 9 14 20 3 11 4 19 4 18 -1 -1 -59 -4
-128 -5z"/>
<path d="M7557 5733 c-112 -3 -128 -6 -123 -19 3 -9 -3 -28 -14 -44 -23 -32
-25 -40 -9 -40 5 0 7 5 4 10 -3 6 1 10 10 10 9 0 13 -4 10 -10 -7 -12 194 -14
211 -2 14 10 26 42 15 42 -5 0 -12 -6 -14 -12 -3 -8 -6 -6 -6 5 -1 10 6 17 18
17 12 0 20 9 23 25 3 14 5 24 4 23 0 -1 -59 -4 -129 -5z"/>
<path d="M7736 5693 c-13 -37 -13 -43 0 -43 8 0 14 -4 14 -10 0 -6 40 -10 99
-10 101 0 131 5 131 21 0 13 -28 11 -32 -2 -2 -7 -11 -10 -18 -7 -10 3 -5 10
16 21 17 9 35 13 38 9 4 -3 4 1 1 10 -4 9 -2 19 4 23 16 9 13 28 -3 22 -8 -3
-17 -3 -20 0 -3 3 -53 6 -111 7 l-105 1 -14 -42z"/>
<path d="M8054 5705 c-13 -32 -9 -49 6 -25 8 13 10 12 10 -2 0 -10 -6 -18 -14
-18 -8 0 -16 -6 -19 -14 -4 -11 15 -14 99 -15 115 -2 106 -8 107 67 1 12 5 22
11 22 5 0 7 3 4 6 -4 3 -48 6 -99 7 l-92 2 -13 -30z"/>
<path d="M8511 5730 c-8 -4 -18 -25 -22 -46 l-8 -39 3 43 4 42 -84 0 c-91 0
-88 2 -96 -70 l-3 -25 102 0 c56 0 105 4 109 8 4 4 8 23 7 42 -1 19 3 32 8 29
5 -3 9 -1 9 5 0 15 -14 21 -29 11z"/>
<path d="M8594 5702 c-3 -21 -8 -46 -10 -57 -2 -11 3 -7 12 10 l15 30 -6 -27
c-8 -39 10 -35 23 5 l11 32 -5 -32 -6 -33 66 0 c40 0 66 4 66 11 0 6 -9 8 -20
4 -12 -4 -20 -2 -20 5 0 6 5 8 10 5 6 -3 10 1 10 10 0 24 23 12 31 -16 4 -13
8 -19 9 -14 1 6 3 19 5 30 2 11 7 30 10 43 7 22 6 22 -76 23 -46 0 -92 2 -101
4 -13 2 -19 -6 -24 -33z"/>
<path d="M8954 5732 c-89 -3 -92 -4 -97 -27 -3 -20 -2 -23 9 -14 11 9 14 9 14
0 0 -6 -7 -14 -15 -17 -22 -9 -18 -31 8 -38 42 -11 165 -7 170 7 4 10 6 10 6
0 1 -18 28 -16 34 1 4 9 -1 17 -11 19 -15 4 -14 5 2 6 14 1 17 6 12 27 -5 18
-3 24 5 18 7 -4 10 -2 7 6 -5 15 -17 16 -144 12z"/>
<path d="M9263 5732 l-101 -3 4 -42 c3 -37 2 -38 -5 -12 l-9 30 -1 -36 -1 -35
104 -3 c87 -2 106 1 121 15 16 17 16 18 -7 35 l-23 18 23 -6 c16 -4 22 -1 22
11 0 9 1 19 3 23 3 8 -8 9 -130 5z"/>
<path d="M9479 5716 c0 -21 -1 -21 -9 -1 -9 22 -14 8 -10 -33 1 -13 -4 -30
-11 -38 -10 -13 4 -14 112 -12 l124 3 0 27 c-1 14 3 24 7 22 4 -3 8 6 8 20 0
26 -1 26 -87 27 -49 0 -98 2 -110 3 -17 2 -23 -3 -24 -18z"/>
<path d="M10064 5729 c-7 -12 0 -59 9 -59 5 0 4 -6 -2 -13 -6 -8 -8 -17 -4
-20 3 -4 61 -7 129 -7 l122 0 -1 49 -1 50 -124 3 c-68 2 -126 0 -128 -3z"/>
<path d="M10473 5732 l-102 -3 1 -40 c1 -53 15 -59 132 -59 78 0 96 3 96 15 0
9 6 12 15 9 17 -7 19 9 5 41 -5 12 -9 14 -9 6 -1 -8 -4 -11 -7 -8 -4 4 -1 13
6 22 7 8 11 15 9 16 -15 3 -58 4 -146 1z"/>
<path d="M10688 5735 c-8 -14 10 -58 21 -51 5 4 7 -4 3 -16 -5 -21 -6 -21 -13
-2 -6 18 -7 18 -14 1 -4 -10 -4 -21 -1 -24 4 -4 49 -9 101 -11 92 -4 93 -4 98
19 4 24 4 24 6 2 1 -16 7 -23 22 -23 20 0 21 4 16 45 -2 26 -7 48 -10 51 -3 3
-50 6 -106 7 -95 2 -101 1 -102 -18 -1 -16 -2 -15 -8 5 -4 14 -10 20 -13 15z"/>
<path d="M10986 5729 c-4 -8 -2 -28 3 -42 6 -15 8 -27 5 -27 -2 0 1 -6 8 -14
9 -10 15 -11 20 -2 6 8 8 7 8 -2 0 -11 23 -13 105 -11 58 2 105 7 105 11 0 5
-8 8 -17 9 -10 0 -13 3 -6 5 9 4 8 62 -2 72 -2 2 -44 4 -94 5 -69 2 -90 -1
-86 -10 2 -7 0 -13 -5 -13 -6 0 -10 8 -11 18 0 14 -2 14 -8 -3 l-8 -20 -5 20
c-4 17 -6 17 -12 4z"/>
<path d="M11587 5713 c-2 -13 -1 -25 2 -29 3 -3 6 -16 6 -27 0 -21 5 -22 88
-25 60 -2 87 1 82 8 -3 5 -2 10 4 10 5 0 11 -5 13 -12 3 -7 7 -6 11 5 3 9 2
17 -4 17 -6 0 -8 10 -4 23 4 15 3 18 -3 9 -7 -11 -10 -11 -15 2 -4 9 -4 22 -2
29 4 9 -17 12 -84 12 -85 0 -90 -1 -94 -22z"/>
<path d="M11923 5732 c-75 -3 -83 -5 -83 -22 0 -13 7 -20 20 -20 14 0 20 -6
19 -22 -1 -17 -2 -19 -6 -5 -2 9 -9 17 -14 17 -12 0 -11 -7 1 -31 10 -17 22
-19 116 -19 l105 0 -21 30 c-15 21 -17 28 -6 24 11 -4 13 0 9 15 -9 35 -18 37
-140 33z"/>
<path d="M12129 5735 c0 0 -2 -10 -5 -23 -3 -15 0 -21 7 -16 8 4 9 0 4 -15 -5
-17 -3 -20 12 -14 15 6 16 4 5 -9 -10 -13 -10 -17 4 -22 20 -8 148 -8 168 0
17 7 22 44 6 44 -5 0 -7 6 -5 13 10 27 -12 36 -103 39 -50 2 -92 3 -93 3z"/>
<path d="M12483 5732 l-102 -3 10 -27 c6 -15 10 -28 10 -29 -1 -2 -1 -12 -1
-23 0 -20 5 -20 127 -18 97 2 127 6 131 17 3 9 0 11 -8 6 -9 -5 -10 -2 -5 15
4 13 3 20 -2 17 -5 -3 -9 3 -9 15 1 28 -25 34 -151 30z"/>
<path d="M12690 5728 c0 -5 8 -8 18 -8 14 0 14 -2 3 -9 -12 -8 -12 -12 -3 -24
7 -8 12 -19 11 -23 -6 -33 1 -35 124 -32 l122 3 -3 25 c-7 59 -54 97 -65 53
-4 -15 -5 -15 -6 2 -1 19 -8 20 -101 20 -55 0 -100 -3 -100 -7z"/>
<path d="M13011 5726 c5 -6 9 -20 9 -33 0 -13 4 -23 9 -23 5 0 8 -8 7 -17 -1
-16 12 -18 127 -21 70 -1 127 1 127 5 0 5 -8 19 -17 32 -9 14 -11 21 -4 17 8
-6 7 2 -3 23 -19 35 -31 41 -21 11 5 -15 3 -18 -9 -14 -8 3 -13 11 -10 17 3 9
-27 12 -110 12 -73 0 -111 -4 -105 -9z"/>
<path d="M13344 5718 c2 -10 0 -18 -5 -18 -5 0 -9 5 -9 12 0 6 -3 9 -6 6 -3
-3 4 -24 16 -47 l20 -41 120 0 c67 0 121 4 125 10 4 6 -1 7 -12 3 -16 -6 -16
-5 -4 10 12 15 11 17 -7 17 -18 0 -38 37 -26 49 3 3 7 -5 11 -17 3 -12 9 -22
14 -22 5 0 3 11 -3 25 -11 24 -38 35 -38 15 0 -5 -4 -10 -10 -10 -5 0 -7 6 -5
13 4 9 -18 12 -90 12 -87 0 -96 -2 -91 -17z"/>
<path d="M9763 5710 c3 -11 1 -20 -5 -20 -5 0 -8 -12 -6 -27 l3 -28 123 -3
122 -3 0 28 c0 15 3 38 6 51 6 22 6 22 -121 22 -122 0 -127 -1 -122 -20z"/>
<path d="M11284 5708 c4 -13 9 -32 10 -43 2 -11 4 -24 5 -30 1 -5 6 0 11 13
12 27 27 28 35 2 6 -18 15 -20 85 -20 88 0 115 6 101 24 -10 12 -11 16 -11 41
0 11 -12 15 -42 17 l-43 1 45 7 c32 5 9 7 -79 8 l-123 2 6 -22z"/>
<path d="M15399 5653 l-1536 -3 1 -37 1 -37 -63 1 c-60 1 -63 0 -57 -20 5 -21
5 -21 -6 1 -14 25 -29 29 -29 7 0 -8 4 -15 9 -15 5 0 7 -8 5 -17 -8 -34 12
-47 78 -51 50 -3 67 -1 77 12 17 21 7 33 -14 16 -12 -10 -15 -10 -15 4 0 23
-85 23 -98 0 -8 -15 -10 -15 -15 0 -4 9 -3 15 1 14 4 -1 14 1 22 5 26 10 90
13 92 5 2 -5 784 -8 1739 -8 1967 0 1791 8 1885 -84 77 -76 97 -138 92 -286
-3 -96 -8 -123 -27 -160 -29 -57 -85 -116 -136 -143 l-40 -22 -1747 -3 -1748
-2 0 -65 0 -65 1720 0 c1235 0 1734 3 1772 11 145 31 266 142 313 287 14 43
16 81 13 205 -4 143 -5 155 -33 210 -36 75 -110 155 -172 190 -90 48 -148 57
-358 55 -104 -2 -881 -4 -1726 -5z"/>
<path d="M5780 5550 c-11 -16 -20 -31 -20 -34 0 -3 44 -7 98 -8 l97 -2 -105
-6 c-139 -7 -107 -22 41 -18 103 3 114 5 113 21 -1 10 1 16 4 13 8 -9 29 37
24 52 -3 10 -33 12 -118 11 -113 -1 -114 -2 -134 -29z"/>
<path d="M6099 5553 c-7 -16 -15 -31 -17 -35 -2 -4 34 -9 80 -11 l83 -3 -88
-2 c-135 -3 -98 -22 43 -22 108 0 120 2 130 19 5 11 10 22 10 25 0 3 -42 7
-92 9 l-93 3 98 2 c90 2 97 4 97 22 0 19 -7 20 -93 20 -92 0 -93 0 -105 -27
l-12 -28 5 28 c7 36 -10 35 -24 -3 -5 -16 -16 -30 -23 -30 -9 0 -10 3 -2 8 11
7 29 52 21 52 -2 0 -10 -12 -18 -27z"/>
<path d="M6421 5551 c-12 -16 -21 -32 -21 -35 0 -3 37 -7 83 -8 l82 -2 -90 -6
c-126 -8 -85 -21 56 -18 105 3 114 5 111 22 -2 12 1 16 9 10 8 -4 10 -3 5 4
-5 8 -40 12 -97 12 -78 0 -89 2 -88 18 0 10 3 12 6 5 3 -9 33 -13 98 -13 77 0
94 3 99 16 4 9 4 19 1 22 -3 3 -5 1 -5 -5 0 -6 -7 -14 -16 -17 -14 -5 -15 -4
-4 9 11 13 1 15 -88 15 l-100 0 -11 -30 c-5 -16 -17 -30 -26 -30 -13 0 -12 4
5 22 18 20 26 38 16 38 -3 0 -14 -13 -25 -29z"/>
<path d="M6755 5572 c-6 -4 -16 -19 -22 -34 l-12 -27 82 -4 82 -3 -88 -2
c-135 -3 -98 -22 43 -22 107 0 153 9 118 23 -8 3 -6 6 5 6 9 1 17 5 17 11 0 5
-42 11 -92 13 l-93 3 96 2 c89 2 97 4 102 23 5 20 5 20 -14 3 -18 -16 -19 -16
-13 -1 5 15 -4 17 -97 17 -57 0 -109 -4 -114 -8z"/>
<path d="M7082 5555 c3 -14 1 -25 -3 -25 -5 0 -9 10 -9 22 0 19 -10 21 -13 1
0 -4 -7 -15 -16 -23 -13 -13 111 -16 1115 -20 l1129 -5 -1128 -3 c-749 -1
-1126 -5 -1122 -12 4 -7 403 -10 1164 -10 l1159 0 4 25 5 25 -1130 0 c-621 0
-1132 2 -1135 5 -3 3 506 5 1130 5 1076 0 1136 1 1134 18 -3 16 -65 17 -1129
20 -1066 2 -1126 1 -1130 -15 -4 -17 -5 -17 -6 0 0 9 -6 17 -12 17 -7 0 -9
-10 -7 -25z m1676 -2 c-285 -2 -751 -2 -1035 0 -285 1 -52 2 517 2 569 0 802
-1 518 -2z"/>
<path d="M10060 5561 c-18 -34 -12 -68 13 -75 12 -3 145 -6 295 -6 l272 0 0
25 0 25 -282 3 -283 2 283 3 c275 2 282 3 282 22 0 20 -7 20 -285 20 -271 0
-285 -1 -295 -19z"/>
<path d="M10708 5574 c-10 -3 -15 -11 -11 -20 4 -11 25 -14 97 -12 l91 2 -80
6 -80 7 80 -1 c46 -1 80 -5 80 -11 0 -6 -35 -11 -80 -13 -94 -3 -117 -8 -95
-22 13 -9 13 -10 0 -10 -13 0 -13 -1 0 -10 8 -5 68 -10 133 -10 131 0 122 -6
103 70 -7 25 -9 25 -114 27 -59 1 -115 -1 -124 -3z"/>
<path d="M11016 5540 c2 -24 10 -48 17 -52 6 -4 60 -7 120 -7 87 1 107 4 107
15 0 9 -4 13 -9 9 -6 -3 -8 10 -5 32 4 29 3 34 -5 23 -9 -13 -11 -13 -11 3 0
15 -11 17 -100 17 -88 0 -100 -2 -101 -17 0 -16 -2 -15 -9 2 -6 14 -8 6 -4
-25z"/>
<path d="M11317 5573 c-4 -6 -3 -23 3 -38 6 -15 8 -30 5 -35 -3 -4 11 -11 30
-14 49 -9 204 -5 211 5 3 5 0 9 -5 9 -6 0 -11 11 -11 24 0 54 -5 56 -111 56
-89 0 -122 -9 -86 -23 7 -4 6 -6 -5 -6 -9 -1 -18 7 -20 17 -2 11 -6 13 -11 5z"/>
<path d="M11883 5563 c-4 -9 -1 -19 5 -21 7 -2 12 -8 12 -13 0 -6 -6 -7 -12
-3 -14 9 10 -26 27 -39 14 -10 216 -7 209 4 -3 5 -10 7 -15 4 -5 -4 -6 6 -3
23 10 50 -13 62 -122 62 -80 0 -96 -3 -101 -17z"/>
<path d="M12183 5572 c-23 -3 -33 -22 -12 -22 6 0 9 -8 6 -19 -10 -41 7 -49
111 -49 l98 -1 -4 30 c-2 16 -8 29 -13 29 -5 0 -8 5 -6 11 5 24 -87 34 -180
21z"/>
<path d="M12464 5573 c-27 -5 -36 -43 -17 -69 11 -16 30 -20 103 -22 61 -3 90
0 90 7 0 7 -30 11 -86 11 -63 0 -89 4 -100 15 -9 8 -11 15 -5 15 5 0 13 -4 16
-10 3 -5 44 -10 91 -10 66 0 86 -3 90 -15 8 -20 21 -19 27 3 4 16 5 16 6 0 0
-10 6 -18 11 -18 9 0 9 17 1 60 -1 3 -6 -2 -11 -10 -8 -13 -10 -12 -10 3 0 9
6 17 13 17 7 0 4 7 -7 15 -19 14 -155 19 -212 8z"/>
<path d="M12760 5569 c0 -6 -4 -7 -10 -4 -12 7 -12 -2 -1 -30 8 -19 8 -19 20
3 11 20 18 22 99 20 l87 -2 -80 -6 -80 -6 90 -4 90 -4 -80 -3 c-115 -5 -125
-17 -20 -23 l90 -6 -92 -2 c-85 -2 -111 6 -83 23 6 4 7 11 4 17 -4 6 -12 -2
-19 -18 -7 -18 -8 -31 -2 -35 5 -4 51 -7 102 -8 90 -2 94 -1 98 21 l4 23 2
-22 c1 -17 7 -23 25 -23 23 0 23 2 14 40 -6 23 -18 45 -27 49 -23 13 -231 12
-231 0z"/>
<path d="M13060 5568 c0 -4 5 -8 10 -8 6 0 10 -10 10 -22 0 -46 14 -53 115
-56 87 -4 95 -2 95 15 1 17 1 17 11 1 8 -15 49 -26 49 -14 0 13 -26 73 -36 83
-13 14 -254 15 -254 1z"/>
<path d="M8870 5312 c0 -10 267 -12 1330 -10 1177 3 1330 1 1330 -12 0 -13 1
-13 11 0 9 12 10 11 6 -8 -7 -33 13 -91 29 -85 8 3 14 9 14 15 0 5 -4 6 -10 3
-10 -6 -15 13 -12 48 1 10 -3 27 -8 38 -10 18 -39 19 -1350 21 -1071 2 -1340
0 -1340 -10z"/>
<path d="M11716 4732 c-4 -17 -3 -40 3 -51 7 -12 7 -22 2 -26 -5 -3 -687 -5
-1515 -5 -1004 0 -1506 -3 -1506 -10 0 -5 -5 -10 -11 -10 -5 0 -8 4 -5 9 3 5
-6 12 -21 16 -15 3 -23 9 -17 13 14 11 16 34 2 30 -18 -6 -22 -46 -7 -64 10
-12 216 -14 1540 -14 869 0 1529 4 1529 9 0 5 8 8 17 7 22 -1 26 38 8 89 l-13
39 -6 -32z"/>
</g>
</svg>
